CastoroTitling-Regular.ufo
<glyph name="ampersand" format="2">
  <advance width="714"/>
  <unicode hex="0026"/>
  <outline>
    <contour>
      <point x="597" y="-5" type="curve" smooth="yes"/>
      <point x="638" y="-5"/>
      <point x="678" y="8"/>
      <point x="714" y="35" type="curve"/>
      <point x="713" y="41"/>
      <point x="711" y="46"/>
      <point x="707" y="51" type="curve"/>
      <point x="682" y="35"/>
      <point x="661" y="31"/>
      <point x="645" y="31" type="curve" smooth="yes"/>
      <point x="605" y="31"/>
      <point x="586" y="54"/>
      <point x="525" y="133" type="curve" smooth="yes"/>
      <point x="441" y="241"/>
      <point x="401" y="290"/>
      <point x="300" y="395" type="curve" smooth="yes"/>
      <point x="245" y="452"/>
      <point x="205" y="496"/>
      <point x="205" y="565" type="curve" smooth="yes"/>
      <point x="205" y="638"/>
      <point x="249" y="684"/>
      <point x="306" y="684" type="curve" smooth="yes"/>
      <point x="358" y="684"/>
      <point x="394" y="645"/>
      <point x="394" y="572" type="curve" smooth="yes"/>
      <point x="394" y="498"/>
      <point x="359" y="451"/>
      <point x="274" y="416" type="curve"/>
      <point x="292" y="397" type="line"/>
      <point x="414" y="448"/>
      <point x="458" y="500"/>
      <point x="458" y="573" type="curve" smooth="yes"/>
      <point x="458" y="667"/>
      <point x="383" y="711"/>
      <point x="309" y="711" type="curve" smooth="yes"/>
      <point x="218" y="711"/>
      <point x="134" y="646"/>
      <point x="134" y="547" type="curve" smooth="yes"/>
      <point x="134" y="478"/>
      <point x="173" y="427"/>
      <point x="228" y="369" type="curve" smooth="yes"/>
      <point x="338" y="253"/>
      <point x="378" y="207"/>
      <point x="476" y="78" type="curve" smooth="yes"/>
      <point x="521" y="18"/>
      <point x="542" y="-5"/>
    </contour>
    <contour>
      <point x="258" y="-12" type="curve" smooth="yes"/>
      <point x="340" y="-12"/>
      <point x="405" y="25"/>
      <point x="468" y="103" type="curve"/>
      <point x="451" y="125" type="line"/>
      <point x="403" y="70"/>
      <point x="360" y="38"/>
      <point x="290" y="38" type="curve" smooth="yes"/>
      <point x="187" y="38"/>
      <point x="122" y="109"/>
      <point x="122" y="206" type="curve" smooth="yes"/>
      <point x="122" y="295"/>
      <point x="177" y="346"/>
      <point x="238" y="375" type="curve"/>
      <point x="220" y="394" type="line"/>
      <point x="140" y="358"/>
      <point x="45" y="288"/>
      <point x="45" y="177" type="curve" smooth="yes"/>
      <point x="45" y="67"/>
      <point x="137" y="-12"/>
    </contour>
    <contour>
      <point x="501" y="148" type="line"/>
      <point x="547" y="212"/>
      <point x="580" y="275"/>
      <point x="583" y="280" type="curve"/>
      <point x="618" y="343"/>
      <point x="623" y="349"/>
      <point x="628" y="354" type="curve" smooth="yes"/>
      <point x="641" y="367"/>
      <point x="659" y="369"/>
      <point x="688" y="371" type="curve"/>
      <point x="689" y="378"/>
      <point x="689" y="383"/>
      <point x="688" y="390" type="curve"/>
      <point x="665" y="390"/>
      <point x="639" y="389"/>
      <point x="604" y="389" type="curve" smooth="yes"/>
      <point x="569" y="389"/>
      <point x="535" y="390"/>
      <point x="510" y="390" type="curve"/>
      <point x="509" y="382"/>
      <point x="509" y="378"/>
      <point x="510" y="370" type="curve"/>
      <point x="551" y="370"/>
      <point x="572" y="367"/>
      <point x="572" y="342" type="curve" smooth="yes"/>
      <point x="572" y="311"/>
      <point x="535" y="247"/>
      <point x="481" y="169" type="curve"/>
    </contour>
  </outline>
</glyph>
<glyph name="parenright" format="2">
  <advance width="349"/>
  <unicode hex="0029"/>
  <outline>
    <contour>
      <point x="37" y="792" type="line"/>
      <point x="141" y="700"/>
      <point x="200" y="565"/>
      <point x="200" y="349" type="curve" smooth="yes"/>
      <point x="200" y="133"/>
      <point x="141" y="-3"/>
      <point x="37" y="-95" type="curve"/>
      <point x="53" y="-110" type="line"/>
      <point x="198" y="4"/>
      <point x="279" y="152"/>
      <point x="279" y="351" type="curve" smooth="yes"/>
      <point x="279" y="552"/>
      <point x="197" y="700"/>
      <point x="53" y="808" type="curve"/>
    </contour>
  </outline>
</glyph>
<glyph name="asterisk" format="2">
  <advance width="341"/>
  <unicode hex="002A"/>
  <outline>
    <contour>
      <point x="79" y="447" type="curve" smooth="yes"/>
      <point x="93" y="447"/>
      <point x="108" y="452"/>
      <point x="120" y="464" type="curve" smooth="yes"/>
      <point x="125" y="469"/>
      <point x="134" y="509"/>
      <point x="170" y="555" type="curve"/>
      <point x="158" y="562" type="line"/>
      <point x="126" y="536"/>
      <point x="90" y="522"/>
      <point x="76" y="514" type="curve"/>
      <point x="63" y="506"/>
      <point x="56" y="483"/>
      <point x="56" y="470" type="curve" smooth="yes"/>
      <point x="56" y="455"/>
      <point x="66" y="447"/>
    </contour>
    <contour>
      <point x="164" y="572" type="line"/>
      <point x="126" y="597"/>
      <point x="109" y="619"/>
      <point x="96" y="632" type="curve" smooth="yes"/>
      <point x="87" y="641"/>
      <point x="77" y="644"/>
      <point x="63" y="644" type="curve" smooth="yes"/>
      <point x="47" y="644"/>
      <point x="30" y="636"/>
      <point x="30" y="619" type="curve" smooth="yes"/>
      <point x="30" y="605"/>
      <point x="42" y="586"/>
      <point x="60" y="577" type="curve"/>
      <point x="73" y="568"/>
      <point x="108" y="578"/>
      <point x="166" y="554" type="curve"/>
    </contour>
    <contour>
      <point x="229" y="428" type="curve" smooth="yes"/>
      <point x="243" y="428"/>
      <point x="251" y="441"/>
      <point x="251" y="459" type="curve" smooth="yes"/>
      <point x="251" y="467"/>
      <point x="248" y="478"/>
      <point x="244" y="487" type="curve"/>
      <point x="240" y="494"/>
      <point x="206" y="517"/>
      <point x="176" y="561" type="curve"/>
      <point x="163" y="554" type="line"/>
      <point x="178" y="515"/>
      <point x="180" y="478"/>
      <point x="183" y="464" type="curve"/>
      <point x="188" y="444"/>
      <point x="212" y="428"/>
    </contour>
    <contour>
      <point x="270" y="545" type="curve" smooth="yes"/>
      <point x="289" y="545"/>
      <point x="316" y="565"/>
      <point x="316" y="585" type="curve" smooth="yes"/>
      <point x="316" y="600"/>
      <point x="293" y="613"/>
      <point x="270" y="613" type="curve" smooth="yes"/>
      <point x="250" y="613"/>
      <point x="233" y="586"/>
      <point x="161" y="566" type="curve"/>
      <point x="166" y="556" type="line"/>
      <point x="217" y="558"/>
      <point x="256" y="545"/>
    </contour>
    <contour>
      <point x="175" y="565" type="line"/>
      <point x="187" y="609"/>
      <point x="216" y="649"/>
      <point x="216" y="664" type="curve" smooth="yes"/>
      <point x="216" y="687"/>
      <point x="204" y="711"/>
      <point x="187" y="711" type="curve" smooth="yes"/>
      <point x="164" y="711"/>
      <point x="148" y="678"/>
      <point x="148" y="665" type="curve" smooth="yes"/>
      <point x="148" y="656"/>
      <point x="161" y="613"/>
      <point x="161" y="566" type="curve"/>
    </contour>
  </outline>
  <guideline angle="90" x="164" y="0"/>
</glyph>
<glyph name="period" format="2">
  <advance width="236"/>
  <unicode hex="002E"/>
  <outline>
    <contour>
      <point x="65" y="45" type="curve" smooth="yes"/>
      <point x="65" y="15"/>
      <point x="88" y="-9"/>
      <point x="117" y="-9" type="curve" smooth="yes"/>
      <point x="150" y="-9"/>
      <point x="171" y="16"/>
      <point x="171" y="45" type="curve" smooth="yes"/>
      <point x="171" y="73"/>
      <point x="150" y="99"/>
      <point x="117" y="99" type="curve" smooth="yes"/>
      <point x="88" y="99"/>
      <point x="65" y="75"/>
    </contour>
  </outline>
</glyph>
<glyph name="zero" format="2">
  <advance width="612"/>
  <unicode hex="0030"/>
  <outline>
    <contour>
      <point x="302" y="675" type="curve" smooth="yes"/>
      <point x="428" y="675"/>
      <point x="467" y="507"/>
      <point x="467" y="341" type="curve" smooth="yes"/>
      <point x="467" y="170"/>
      <point x="426" y="20"/>
      <point x="310" y="20" type="curve" smooth="yes"/>
      <point x="184" y="20"/>
      <point x="145" y="197"/>
      <point x="145" y="360" type="curve" smooth="yes"/>
      <point x="145" y="525"/>
      <point x="184" y="675"/>
    </contour>
    <contour>
      <point x="552" y="353" type="curve" smooth="yes"/>
      <point x="552" y="540"/>
      <point x="483" y="706"/>
      <point x="311" y="706" type="curve" smooth="yes"/>
      <point x="136" y="706"/>
      <point x="60" y="535"/>
      <point x="60" y="345" type="curve" smooth="yes"/>
      <point x="60" y="142"/>
      <point x="144" y="-9"/>
      <point x="304" y="-9" type="curve" smooth="yes"/>
      <point x="465" y="-9"/>
      <point x="552" y="144"/>
    </contour>
  </outline>
</glyph>
<glyph name="two" format="2">
  <advance width="507"/>
  <unicode hex="0032"/>
  <outline>
    <contour>
      <point x="422" y="-1" type="curve"/>
      <point x="430" y="41"/>
      <point x="441" y="94"/>
      <point x="454" y="138" type="curve"/>
      <point x="449" y="140"/>
      <point x="441" y="141"/>
      <point x="437" y="141" type="curve"/>
      <point x="410" y="73"/>
      <point x="400" y="71"/>
      <point x="355" y="70" type="curve" smooth="yes"/>
      <point x="352" y="70"/>
      <point x="235" y="69"/>
      <point x="113" y="69" type="curve"/>
      <point x="306" y="264"/>
      <point x="418" y="392"/>
      <point x="418" y="532" type="curve" smooth="yes"/>
      <point x="418" y="647"/>
      <point x="343" y="711"/>
      <point x="233" y="711" type="curve" smooth="yes"/>
      <point x="154" y="711"/>
      <point x="88" y="677"/>
      <point x="35" y="618" type="curve"/>
      <point x="39" y="611"/>
      <point x="41" y="609"/>
      <point x="47" y="604" type="curve"/>
      <point x="89" y="639"/>
      <point x="143" y="657"/>
      <point x="196" y="657" type="curve" smooth="yes"/>
      <point x="275" y="657"/>
      <point x="333" y="617"/>
      <point x="333" y="513" type="curve" smooth="yes"/>
      <point x="333" y="399"/>
      <point x="262" y="247"/>
      <point x="18" y="17" type="curve"/>
      <point x="18" y="9"/>
      <point x="18" y="8"/>
      <point x="23" y="0" type="curve"/>
      <point x="49" y="1"/>
      <point x="99" y="1"/>
      <point x="172" y="1" type="curve" smooth="yes"/>
      <point x="248" y="1"/>
      <point x="343" y="1"/>
    </contour>
  </outline>
</glyph>
<glyph name="three" format="2">
  <advance width="541"/>
  <unicode hex="0033"/>
  <outline>
    <contour>
      <point x="143" y="358" type="line"/>
      <point x="144" y="349"/>
      <point x="145" y="344"/>
      <point x="149" y="337" type="curve"/>
      <point x="169" y="341"/>
      <point x="194" y="344"/>
      <point x="216" y="344" type="curve" smooth="yes"/>
      <point x="334" y="344"/>
      <point x="393" y="263"/>
      <point x="393" y="174" type="curve" smooth="yes"/>
      <point x="393" y="73"/>
      <point x="316" y="16"/>
      <point x="211" y="16" type="curve" smooth="yes"/>
      <point x="188" y="16"/>
      <point x="170" y="19"/>
      <point x="150" y="26" type="curve"/>
      <point x="170" y="15" type="line"/>
      <point x="157" y="80"/>
      <point x="126" y="116"/>
      <point x="89" y="116" type="curve" smooth="yes"/>
      <point x="62" y="116"/>
      <point x="45" y="98"/>
      <point x="45" y="74" type="curve" smooth="yes"/>
      <point x="45" y="22"/>
      <point x="129" y="-12"/>
      <point x="217" y="-12" type="curve" smooth="yes"/>
      <point x="341" y="-12"/>
      <point x="476" y="55"/>
      <point x="476" y="201" type="curve" smooth="yes"/>
      <point x="476" y="304"/>
      <point x="407" y="376"/>
      <point x="290" y="393" type="curve"/>
    </contour>
    <contour>
      <point x="292" y="387" type="line"/>
      <point x="389" y="438"/>
      <point x="439" y="490"/>
      <point x="439" y="563" type="curve" smooth="yes"/>
      <point x="439" y="638"/>
      <point x="387" y="711"/>
      <point x="260" y="711" type="curve" smooth="yes"/>
      <point x="178" y="711"/>
      <point x="121" y="680"/>
      <point x="70" y="633" type="curve"/>
      <point x="73" y="627"/>
      <point x="76" y="624"/>
      <point x="81" y="619" type="curve"/>
      <point x="123" y="643"/>
      <point x="172" y="659"/>
      <point x="220" y="659" type="curve" smooth="yes"/>
      <point x="315" y="659"/>
      <point x="356" y="598"/>
      <point x="356" y="540" type="curve" smooth="yes"/>
      <point x="356" y="464"/>
      <point x="287" y="397"/>
      <point x="143" y="358" type="curve"/>
    </contour>
  </outline>
</glyph>
<glyph name="six" format="2">
  <advance width="577"/>
  <unicode hex="0036"/>
  <outline>
    <contour>
      <point x="295" y="-12" type="curve" smooth="yes"/>
      <point x="407" y="-12"/>
      <point x="522" y="61"/>
      <point x="522" y="216" type="curve" smooth="yes"/>
      <point x="522" y="364"/>
      <point x="418" y="428"/>
      <point x="313" y="428" type="curve" smooth="yes"/>
      <point x="257" y="428"/>
      <point x="198" y="411"/>
      <point x="153" y="379" type="curve"/>
      <point x="147" y="344" type="line"/>
      <point x="189" y="374"/>
      <point x="234" y="389"/>
      <point x="275" y="389" type="curve" smooth="yes"/>
      <point x="357" y="389"/>
      <point x="433" y="327"/>
      <point x="433" y="191" type="curve" smooth="yes"/>
      <point x="433" y="60"/>
      <point x="363" y="17"/>
      <point x="302" y="17" type="curve" smooth="yes"/>
      <point x="225" y="17"/>
      <point x="149" y="85"/>
      <point x="149" y="275" type="curve" smooth="yes"/>
      <point x="149" y="496"/>
      <point x="252" y="682"/>
      <point x="443" y="682" type="curve" smooth="yes"/>
      <point x="457" y="682"/>
      <point x="466" y="681"/>
      <point x="473" y="680" type="curve"/>
      <point x="475" y="688"/>
      <point x="476" y="699"/>
      <point x="476" y="709" type="curve"/>
      <point x="464" y="711"/>
      <point x="450" y="711"/>
      <point x="446" y="711" type="curve" smooth="yes"/>
      <point x="195" y="711"/>
      <point x="60" y="484"/>
      <point x="60" y="270" type="curve" smooth="yes"/>
      <point x="60" y="75"/>
      <point x="173" y="-12"/>
    </contour>
  </outline>
</glyph>
<glyph name="seven" format="2">
  <advance width="511"/>
  <unicode hex="0037"/>
  <outline>
    <contour>
      <point x="119" y="-5" type="line"/>
      <point x="133" y="-6"/>
      <point x="147" y="-6"/>
      <point x="160" y="-6" type="curve" smooth="yes"/>
      <point x="174" y="-6"/>
      <point x="192" y="-6"/>
      <point x="205" y="-5" type="curve"/>
      <point x="272" y="205"/>
      <point x="381" y="471"/>
      <point x="476" y="682" type="curve"/>
      <point x="475" y="692"/>
      <point x="474" y="698"/>
      <point x="473" y="702" type="curve"/>
      <point x="450" y="699"/>
      <point x="374" y="699"/>
      <point x="322" y="699" type="curve" smooth="yes"/>
      <point x="230" y="699"/>
      <point x="149" y="700"/>
      <point x="69" y="703" type="curve"/>
      <point x="65" y="657"/>
      <point x="56" y="596"/>
      <point x="45" y="540" type="curve"/>
      <point x="51" y="538"/>
      <point x="57" y="537"/>
      <point x="62" y="537" type="curve"/>
      <point x="90" y="614"/>
      <point x="111" y="627"/>
      <point x="157" y="628" type="curve" smooth="yes"/>
      <point x="190" y="629"/>
      <point x="216" y="629"/>
      <point x="237" y="629" type="curve" smooth="yes"/>
      <point x="336" y="629"/>
      <point x="419" y="628"/>
      <point x="422" y="628" type="curve"/>
      <point x="315" y="418"/>
      <point x="215" y="214"/>
      <point x="115" y="4" type="curve"/>
    </contour>
  </outline>
</glyph>
<glyph name="equal" format="2">
  <advance width="509"/>
  <unicode hex="003D"/>
  <outline>
    <contour>
      <point x="46" y="449" type="line"/>
      <point x="45" y="435"/>
      <point x="45" y="418"/>
      <point x="46" y="405" type="curve"/>
      <point x="463" y="405" type="line"/>
      <point x="464" y="418"/>
      <point x="464" y="435"/>
      <point x="463" y="449" type="curve"/>
    </contour>
    <contour>
      <point x="46" y="292" type="line"/>
      <point x="45" y="278"/>
      <point x="45" y="261"/>
      <point x="46" y="248" type="curve"/>
      <point x="463" y="248" type="line"/>
      <point x="464" y="261"/>
      <point x="464" y="278"/>
      <point x="463" y="292" type="curve"/>
    </contour>
  </outline>
</glyph>
<glyph name="greater" format="2">
  <advance width="509"/>
  <unicode hex="003E"/>
  <outline>
    <contour>
      <point x="68" y="545" type="line"/>
      <point x="61" y="533"/>
      <point x="53" y="517"/>
      <point x="49" y="505" type="curve"/>
      <point x="397" y="346" type="line"/>
      <point x="397" y="349" type="line"/>
      <point x="49" y="191" type="line"/>
      <point x="54" y="178"/>
      <point x="62" y="163"/>
      <point x="68" y="151" type="curve"/>
      <point x="455" y="331" type="line"/>
      <point x="457" y="342"/>
      <point x="457" y="354"/>
      <point x="455" y="365" type="curve"/>
    </contour>
  </outline>
</glyph>
<glyph name="at" format="2">
  <advance width="843"/>
  <unicode hex="0040"/>
  <outline>
    <contour>
      <point x="404" y="-12" type="curve" smooth="yes"/>
      <point x="504" y="-12"/>
      <point x="610" y="21"/>
      <point x="679" y="90" type="curve"/>
      <point x="675" y="96"/>
      <point x="670" y="102"/>
      <point x="665" y="107" type="curve"/>
      <point x="596" y="48"/>
      <point x="508" y="20"/>
      <point x="422" y="20" type="curve" smooth="yes"/>
      <point x="244" y="20"/>
      <point x="116" y="140"/>
      <point x="116" y="327" type="curve" smooth="yes"/>
      <point x="116" y="527"/>
      <point x="264" y="681"/>
      <point x="461" y="681" type="curve" smooth="yes"/>
      <point x="613" y="681"/>
      <point x="733" y="591"/>
      <point x="733" y="425" type="curve" smooth="yes"/>
      <point x="733" y="268"/>
      <point x="626" y="183"/>
      <point x="566" y="183" type="curve" smooth="yes"/>
      <point x="537" y="183"/>
      <point x="532" y="202"/>
      <point x="532" y="241" type="curve"/>
      <point x="532" y="243"/>
      <point x="532" y="247"/>
      <point x="536" y="264" type="curve"/>
      <point x="543" y="299"/>
      <point x="540" y="293"/>
      <point x="605" y="548" type="curve"/>
      <point x="603" y="550" type="line"/>
      <point x="534" y="535" type="line"/>
      <point x="519" y="488" type="line"/>
      <point x="483" y="349" type="line"/>
      <point x="471" y="270" type="line"/>
      <point x="467" y="248"/>
      <point x="465" y="238"/>
      <point x="465" y="226" type="curve" smooth="yes"/>
      <point x="465" y="177"/>
      <point x="494" y="151"/>
      <point x="543" y="151" type="curve" smooth="yes"/>
      <point x="638" y="151"/>
      <point x="783" y="246"/>
      <point x="783" y="427" type="curve" smooth="yes"/>
      <point x="783" y="606"/>
      <point x="639" y="711"/>
      <point x="464" y="711" type="curve" smooth="yes"/>
      <point x="248" y="711"/>
      <point x="60" y="553"/>
      <point x="60" y="322" type="curve" smooth="yes"/>
      <point x="60" y="117"/>
      <point x="207" y="-12"/>
    </contour>
    <contour>
      <point x="549" y="530" type="line"/>
      <point x="516" y="545"/>
      <point x="489" y="554"/>
      <point x="461" y="554" type="curve" smooth="yes"/>
      <point x="333" y="554"/>
      <point x="232" y="371"/>
      <point x="232" y="256" type="curve" smooth="yes"/>
      <point x="232" y="193"/>
      <point x="262" y="151"/>
      <point x="315" y="151" type="curve" smooth="yes"/>
      <point x="375" y="151"/>
      <point x="431" y="206"/>
      <point x="465" y="257" type="curve"/>
      <point x="480" y="252" type="line"/>
      <point x="483" y="349" type="line"/>
      <point x="464" y="276"/>
      <point x="402" y="198"/>
      <point x="352" y="198" type="curve" smooth="yes"/>
      <point x="322" y="198"/>
      <point x="309" y="225"/>
      <point x="309" y="273" type="curve" smooth="yes"/>
      <point x="309" y="366"/>
      <point x="358" y="522"/>
      <point x="441" y="522" type="curve" smooth="yes"/>
      <point x="467" y="522"/>
      <point x="496" y="506"/>
      <point x="526" y="477" type="curve"/>
    </contour>
  </outline>
</glyph>
<glyph name="C" format="2">
  <advance width="745"/>
  <unicode hex="0043"/>
  <unicode hex="0063"/>
  <outline>
    <contour>
      <point x="680" y="170" type="curve"/>
      <point x="676" y="170"/>
      <point x="672" y="171"/>
      <point x="669" y="171" type="curve" smooth="yes"/>
      <point x="665" y="171"/>
      <point x="662" y="170"/>
      <point x="659" y="170" type="curve"/>
      <point x="639" y="68"/>
      <point x="585" y="18"/>
      <point x="453" y="18" type="curve" smooth="yes"/>
      <point x="221" y="18"/>
      <point x="145" y="171"/>
      <point x="145" y="352" type="curve" smooth="yes"/>
      <point x="145" y="521"/>
      <point x="211" y="682"/>
      <point x="435" y="682" type="curve" smooth="yes"/>
      <point x="566" y="682"/>
      <point x="641" y="627"/>
      <point x="656" y="525" type="curve"/>
      <point x="663" y="525"/>
      <point x="667" y="525"/>
      <point x="675" y="527" type="curve"/>
      <point x="672" y="576"/>
      <point x="668" y="645"/>
      <point x="667" y="688" type="curve"/>
      <point x="659" y="687"/>
      <point x="655" y="687"/>
      <point x="651" y="687" type="curve" smooth="yes"/>
      <point x="627" y="687"/>
      <point x="607" y="692"/>
      <point x="584" y="696" type="curve" smooth="yes"/>
      <point x="525" y="706"/>
      <point x="481" y="711"/>
      <point x="438" y="711" type="curve" smooth="yes"/>
      <point x="198" y="711"/>
      <point x="55" y="559"/>
      <point x="55" y="344" type="curve" smooth="yes"/>
      <point x="55" y="130"/>
      <point x="197" y="-12"/>
      <point x="436" y="-12" type="curve" smooth="yes"/>
      <point x="523" y="-12"/>
      <point x="605" y="7"/>
      <point x="665" y="19" type="curve"/>
      <point x="668" y="64"/>
      <point x="674" y="127"/>
    </contour>
  </outline>
  <guideline angle="345.426" x="-5" y="609"/>
  <guideline angle="90" x="55" y="0"/>
</glyph>
<glyph name="D" format="2">
  <advance width="840"/>
  <unicode hex="0044"/>
  <unicode hex="0064"/>
  <outline>
    <contour>
      <point x="211" y="699" type="curve" smooth="yes"/>
      <point x="174" y="699"/>
      <point x="125" y="701"/>
      <point x="92" y="701" type="curve"/>
      <point x="91" y="693"/>
      <point x="91" y="689"/>
      <point x="92" y="681" type="curve"/>
      <point x="159" y="676"/>
      <point x="165" y="674"/>
      <point x="165" y="614" type="curve" smooth="yes"/>
      <point x="165" y="77" type="line" smooth="yes"/>
      <point x="165" y="24"/>
      <point x="162" y="25"/>
      <point x="94" y="19" type="curve"/>
      <point x="93" y="11"/>
      <point x="93" y="7"/>
      <point x="94" y="-1" type="curve"/>
      <point x="123" y="-1"/>
      <point x="182" y="1"/>
      <point x="208" y="1" type="curve" smooth="yes"/>
      <point x="248" y="1"/>
      <point x="314" y="-4"/>
      <point x="365" y="-4" type="curve" smooth="yes"/>
      <point x="602" y="-4"/>
      <point x="785" y="103"/>
      <point x="785" y="352" type="curve" smooth="yes"/>
      <point x="785" y="580"/>
      <point x="631" y="701"/>
      <point x="355" y="701" type="curve" smooth="yes"/>
      <point x="319" y="701"/>
      <point x="248" y="699"/>
    </contour>
    <contour>
      <point x="245" y="667" type="line"/>
      <point x="261" y="668"/>
      <point x="303" y="671"/>
      <point x="339" y="671" type="curve" smooth="yes"/>
      <point x="574" y="671"/>
      <point x="699" y="543"/>
      <point x="699" y="337" type="curve" smooth="yes"/>
      <point x="699" y="143"/>
      <point x="589" y="26"/>
      <point x="372" y="26" type="curve" smooth="yes"/>
      <point x="332" y="26"/>
      <point x="287" y="30"/>
      <point x="245" y="38" type="curve"/>
    </contour>
  </outline>
</glyph>
<glyph name="F" format="2">
  <advance width="592"/>
  <unicode hex="0046"/>
  <unicode hex="0066"/>
  <outline>
    <contour>
      <point x="92" y="-1" type="curve"/>
      <point x="123" y="-1"/>
      <point x="175" y="1"/>
      <point x="204" y="1" type="curve" smooth="yes"/>
      <point x="232" y="1"/>
      <point x="293" y="-1"/>
      <point x="323" y="-1" type="curve"/>
      <point x="324" y="7"/>
      <point x="324" y="11"/>
      <point x="323" y="19" type="curve"/>
      <point x="282" y="21"/>
      <point x="264" y="23"/>
      <point x="255" y="32" type="curve"/>
      <point x="245" y="41"/>
      <point x="245" y="56"/>
      <point x="245" y="86" type="curve" smooth="yes"/>
      <point x="245" y="669" type="line"/>
      <point x="397" y="669" type="line" smooth="yes"/>
      <point x="435" y="669"/>
      <point x="462" y="663"/>
      <point x="480" y="648" type="curve" smooth="yes"/>
      <point x="496" y="635"/>
      <point x="507" y="617"/>
      <point x="520" y="580" type="curve"/>
      <point x="527" y="579"/>
      <point x="532" y="579"/>
      <point x="540" y="580" type="curve"/>
      <point x="532" y="624"/>
      <point x="527" y="664"/>
      <point x="522" y="701" type="curve"/>
      <point x="518" y="701"/>
      <point x="345" y="699"/>
      <point x="235" y="699" type="curve" smooth="yes"/>
      <point x="146" y="699"/>
      <point x="141" y="701"/>
      <point x="94" y="701" type="curve"/>
      <point x="93" y="693"/>
      <point x="93" y="689"/>
      <point x="94" y="681" type="curve"/>
      <point x="161" y="676"/>
      <point x="165" y="674"/>
      <point x="165" y="614" type="curve" smooth="yes"/>
      <point x="165" y="77" type="line" smooth="yes"/>
      <point x="165" y="24"/>
      <point x="162" y="25"/>
      <point x="92" y="19" type="curve"/>
      <point x="91" y="11"/>
      <point x="91" y="7"/>
    </contour>
    <contour>
      <point x="448" y="250" type="curve"/>
      <point x="457" y="249"/>
      <point x="462" y="249"/>
      <point x="469" y="250" type="curve"/>
      <point x="469" y="262"/>
      <point x="467" y="308"/>
      <point x="467" y="349" type="curve" smooth="yes"/>
      <point x="467" y="394"/>
      <point x="469" y="436"/>
      <point x="469" y="445" type="curve"/>
      <point x="462" y="446"/>
      <point x="456" y="446"/>
      <point x="448" y="445" type="curve"/>
      <point x="438" y="371"/>
      <point x="429" y="367"/>
      <point x="360" y="367" type="curve" smooth="yes"/>
      <point x="230" y="367" type="line"/>
      <point x="230" y="335" type="line"/>
      <point x="366" y="335" type="line" smooth="yes"/>
      <point x="429" y="335"/>
      <point x="439" y="333"/>
    </contour>
  </outline>
</glyph>
<glyph name="G" format="2">
  <advance width="800"/>
  <unicode hex="0047"/>
  <unicode hex="0067"/>
  <outline>
    <contour>
      <point x="447" y="682" type="curve" smooth="yes"/>
      <point x="586" y="682"/>
      <point x="656" y="624"/>
      <point x="671" y="525" type="curve"/>
      <point x="678" y="525"/>
      <point x="682" y="525"/>
      <point x="690" y="527" type="curve"/>
      <point x="687" y="576"/>
      <point x="683" y="645"/>
      <point x="682" y="688" type="curve"/>
      <point x="674" y="687"/>
      <point x="670" y="687"/>
      <point x="666" y="687" type="curve" smooth="yes"/>
      <point x="642" y="687"/>
      <point x="622" y="692"/>
      <point x="599" y="696" type="curve"/>
      <point x="538" y="706"/>
      <point x="493" y="711"/>
      <point x="448" y="711" type="curve" smooth="yes"/>
      <point x="206" y="711"/>
      <point x="60" y="565"/>
      <point x="60" y="344" type="curve" smooth="yes"/>
      <point x="60" y="117"/>
      <point x="215" y="-12"/>
      <point x="458" y="-12" type="curve" smooth="yes"/>
      <point x="533" y="-12"/>
      <point x="623" y="0"/>
      <point x="689" y="22" type="curve"/>
      <point x="618" y="40" type="line"/>
      <point x="566" y="26"/>
      <point x="504" y="19"/>
      <point x="457" y="19" type="curve" smooth="yes"/>
      <point x="250" y="19"/>
      <point x="150" y="155"/>
      <point x="150" y="358" type="curve" smooth="yes"/>
      <point x="150" y="529"/>
      <point x="221" y="682"/>
    </contour>
    <contour>
      <point x="689" y="22" type="line"/>
      <point x="687" y="35"/>
      <point x="685" y="69"/>
      <point x="685" y="115" type="curve" smooth="yes"/>
      <point x="685" y="250" type="line" smooth="yes"/>
      <point x="685" y="302"/>
      <point x="687" y="302"/>
      <point x="747" y="309" type="curve"/>
      <point x="748" y="317"/>
      <point x="748" y="321"/>
      <point x="747" y="328" type="curve"/>
      <point x="729" y="328"/>
      <point x="674" y="326"/>
      <point x="645" y="326" type="curve" smooth="yes"/>
      <point x="615" y="326"/>
      <point x="557" y="328"/>
      <point x="527" y="328" type="curve"/>
      <point x="526" y="321"/>
      <point x="526" y="316"/>
      <point x="527" y="309" type="curve"/>
      <point x="603" y="303"/>
      <point x="607" y="302"/>
      <point x="607" y="242" type="curve" smooth="yes"/>
      <point x="607" y="24" type="line"/>
    </contour>
  </outline>
</glyph>
<glyph name="H" format="2">
  <advance width="889"/>
  <unicode hex="0048"/>
  <unicode hex="0068"/>
  <outline>
    <contour>
      <point x="93" y="-1" type="curve"/>
      <point x="122" y="-1"/>
      <point x="177" y="1"/>
      <point x="204" y="1" type="curve" smooth="yes"/>
      <point x="231" y="1"/>
      <point x="287" y="-1"/>
      <point x="316" y="-1" type="curve"/>
      <point x="317" y="7"/>
      <point x="317" y="11"/>
      <point x="316" y="19" type="curve"/>
      <point x="247" y="24"/>
      <point x="245" y="25"/>
      <point x="245" y="86" type="curve" smooth="yes"/>
      <point x="245" y="623" type="line" smooth="yes"/>
      <point x="245" y="674"/>
      <point x="248" y="676"/>
      <point x="316" y="681" type="curve"/>
      <point x="317" y="689"/>
      <point x="317" y="693"/>
      <point x="316" y="701" type="curve"/>
      <point x="289" y="701"/>
      <point x="231" y="699"/>
      <point x="205" y="699" type="curve" smooth="yes"/>
      <point x="178" y="699"/>
      <point x="122" y="701"/>
      <point x="93" y="701" type="curve"/>
      <point x="92" y="693"/>
      <point x="92" y="689"/>
      <point x="93" y="681" type="curve"/>
      <point x="161" y="676"/>
      <point x="165" y="675"/>
      <point x="165" y="614" type="curve" smooth="yes"/>
      <point x="165" y="77" type="line" smooth="yes"/>
      <point x="165" y="25"/>
      <point x="160" y="24"/>
      <point x="93" y="19" type="curve"/>
      <point x="92" y="11"/>
      <point x="92" y="7"/>
    </contour>
    <contour>
      <point x="667" y="348" type="line"/>
      <point x="667" y="380" type="line"/>
      <point x="229" y="380" type="line"/>
      <point x="229" y="348" type="line"/>
    </contour>
    <contour>
      <point x="575" y="-1" type="curve"/>
      <point x="604" y="-1"/>
      <point x="657" y="1"/>
      <point x="684" y="1" type="curve" smooth="yes"/>
      <point x="711" y="1"/>
      <point x="766" y="-1"/>
      <point x="796" y="-1" type="curve"/>
      <point x="797" y="7"/>
      <point x="797" y="11"/>
      <point x="796" y="19" type="curve"/>
      <point x="726" y="24"/>
      <point x="724" y="26"/>
      <point x="724" y="86" type="curve" smooth="yes"/>
      <point x="724" y="623" type="line" smooth="yes"/>
      <point x="724" y="674"/>
      <point x="728" y="676"/>
      <point x="796" y="681" type="curve"/>
      <point x="797" y="689"/>
      <point x="797" y="693"/>
      <point x="796" y="701" type="curve"/>
      <point x="766" y="701"/>
      <point x="713" y="699"/>
      <point x="685" y="699" type="curve" smooth="yes"/>
      <point x="658" y="699"/>
      <point x="601" y="701"/>
      <point x="574" y="701" type="curve"/>
      <point x="573" y="693"/>
      <point x="573" y="689"/>
      <point x="574" y="681" type="curve"/>
      <point x="641" y="676"/>
      <point x="644" y="675"/>
      <point x="644" y="614" type="curve" smooth="yes"/>
      <point x="644" y="77" type="line" smooth="yes"/>
      <point x="644" y="25"/>
      <point x="641" y="24"/>
      <point x="575" y="19" type="curve"/>
      <point x="574" y="11"/>
      <point x="574" y="7"/>
    </contour>
  </outline>
  <guideline angle="0" x="0" y="497"/>
</glyph>
<glyph name="J" format="2">
  <advance width="384"/>
  <unicode hex="004A"/>
  <unicode hex="006A"/>
  <outline>
    <contour>
      <point x="55" y="-212" type="curve" smooth="yes"/>
      <point x="102" y="-212"/>
      <point x="150" y="-191"/>
      <point x="185" y="-149" type="curve" smooth="yes"/>
      <point x="222" y="-104"/>
      <point x="239" y="-43"/>
      <point x="239" y="46" type="curve" smooth="yes"/>
      <point x="239" y="623" type="line" smooth="yes"/>
      <point x="239" y="676"/>
      <point x="242" y="675"/>
      <point x="312" y="681" type="curve"/>
      <point x="312" y="689"/>
      <point x="312" y="693"/>
      <point x="312" y="701" type="curve"/>
      <point x="281" y="701"/>
      <point x="230" y="699"/>
      <point x="200" y="699" type="curve" smooth="yes"/>
      <point x="170" y="699"/>
      <point x="116" y="701"/>
      <point x="88" y="701" type="curve"/>
      <point x="87" y="693"/>
      <point x="87" y="689"/>
      <point x="88" y="681" type="curve"/>
      <point x="157" y="676"/>
      <point x="160" y="674"/>
      <point x="160" y="614" type="curve" smooth="yes"/>
      <point x="160" y="11" type="line" smooth="yes"/>
      <point x="160" y="-86"/>
      <point x="160" y="-161"/>
      <point x="95" y="-175" type="curve"/>
      <point x="80" y="-147"/>
      <point x="58" y="-120"/>
      <point x="27" y="-120" type="curve" smooth="yes"/>
      <point x="2" y="-120"/>
      <point x="-19" y="-136"/>
      <point x="-19" y="-162" type="curve" smooth="yes"/>
      <point x="-19" y="-193"/>
      <point x="11" y="-212"/>
    </contour>
  </outline>
</glyph>
<glyph name="O" format="2">
  <advance width="833"/>
  <unicode hex="004F"/>
  <unicode hex="006F"/>
  <outline>
    <contour>
      <point x="689" y="345" type="curve" smooth="yes"/>
      <point x="689" y="181"/>
      <point x="620" y="17"/>
      <point x="422" y="17" type="curve" smooth="yes"/>
      <point x="221" y="17"/>
      <point x="145" y="191"/>
      <point x="145" y="351" type="curve" smooth="yes"/>
      <point x="145" y="511"/>
      <point x="219" y="681"/>
      <point x="417" y="681" type="curve" smooth="yes"/>
      <point x="615" y="681"/>
      <point x="689" y="513"/>
    </contour>
    <contour>
      <point x="778" y="355" type="curve" smooth="yes"/>
      <point x="778" y="563"/>
      <point x="641" y="711"/>
      <point x="422" y="711" type="curve" smooth="yes"/>
      <point x="198" y="711"/>
      <point x="55" y="556"/>
      <point x="55" y="344" type="curve" smooth="yes"/>
      <point x="55" y="137"/>
      <point x="189" y="-12"/>
      <point x="412" y="-12" type="curve" smooth="yes"/>
      <point x="635" y="-12"/>
      <point x="778" y="140"/>
    </contour>
  </outline>
</glyph>
<glyph name="R" format="2">
  <advance width="678"/>
  <unicode hex="0052"/>
  <unicode hex="0072"/>
  <outline>
    <contour>
      <point x="233" y="329" type="line"/>
      <point x="270" y="326" type="line" smooth="yes"/>
      <point x="318" y="322"/>
      <point x="331" y="317"/>
      <point x="366" y="270" type="curve" smooth="yes"/>
      <point x="420" y="197"/>
      <point x="512" y="50"/>
      <point x="542" y="0" type="curve"/>
      <point x="557" y="0"/>
      <point x="571" y="1"/>
      <point x="587" y="1" type="curve" smooth="yes"/>
      <point x="609" y="1"/>
      <point x="668" y="-1"/>
      <point x="697" y="-1" type="curve"/>
      <point x="698" y="7"/>
      <point x="698" y="11"/>
      <point x="697" y="19" type="curve"/>
      <point x="632" y="24"/>
      <point x="618" y="27"/>
      <point x="572" y="98" type="curve" smooth="yes"/>
      <point x="530" y="163"/>
      <point x="467" y="258"/>
      <point x="443" y="289" type="curve" smooth="yes"/>
      <point x="422" y="316"/>
      <point x="407" y="327"/>
      <point x="388" y="337" type="curve"/>
      <point x="388" y="348" type="line"/>
      <point x="383" y="338" type="line"/>
      <point x="484" y="369"/>
      <point x="550" y="429"/>
      <point x="550" y="529" type="curve" smooth="yes"/>
      <point x="550" y="654"/>
      <point x="448" y="701"/>
      <point x="334" y="701" type="curve" smooth="yes"/>
      <point x="310" y="701"/>
      <point x="231" y="699"/>
      <point x="205" y="699" type="curve" smooth="yes"/>
      <point x="179" y="699"/>
      <point x="120" y="701"/>
      <point x="92" y="701" type="curve"/>
      <point x="91" y="693"/>
      <point x="91" y="689"/>
      <point x="92" y="681" type="curve"/>
      <point x="160" y="676"/>
      <point x="165" y="674"/>
      <point x="165" y="615" type="curve" smooth="yes"/>
      <point x="165" y="77" type="line" smooth="yes"/>
      <point x="165" y="24"/>
      <point x="162" y="24"/>
      <point x="92" y="19" type="curve"/>
      <point x="91" y="11"/>
      <point x="91" y="7"/>
      <point x="92" y="-1" type="curve"/>
      <point x="120" y="-1"/>
      <point x="177" y="1"/>
      <point x="204" y="1" type="curve" smooth="yes"/>
      <point x="231" y="1"/>
      <point x="291" y="-1"/>
      <point x="320" y="-1" type="curve"/>
      <point x="321" y="7"/>
      <point x="321" y="11"/>
      <point x="320" y="19" type="curve"/>
      <point x="248" y="24"/>
      <point x="245" y="25"/>
      <point x="245" y="86" type="curve" smooth="yes"/>
      <point x="245" y="669" type="line"/>
      <point x="266" y="671"/>
      <point x="287" y="672"/>
      <point x="302" y="672" type="curve" smooth="yes"/>
      <point x="408" y="672"/>
      <point x="464" y="618"/>
      <point x="464" y="518" type="curve" smooth="yes"/>
      <point x="464" y="406"/>
      <point x="394" y="355"/>
      <point x="287" y="355" type="curve" smooth="yes"/>
      <point x="272" y="355"/>
      <point x="257" y="356"/>
      <point x="233" y="360" type="curve"/>
    </contour>
  </outline>
</glyph>
<glyph name="T" format="2">
  <advance width="640"/>
  <unicode hex="0054"/>
  <unicode hex="0074"/>
  <outline>
    <contour>
      <point x="206" y="-1" type="curve"/>
      <point x="237" y="-1"/>
      <point x="292" y="1"/>
      <point x="320" y="1" type="curve" smooth="yes"/>
      <point x="348" y="1"/>
      <point x="404" y="-1"/>
      <point x="434" y="-1" type="curve"/>
      <point x="435" y="7"/>
      <point x="435" y="11"/>
      <point x="434" y="19" type="curve"/>
      <point x="362" y="24"/>
      <point x="360" y="25"/>
      <point x="360" y="86" type="curve" smooth="yes"/>
      <point x="360" y="688" type="line"/>
      <point x="280" y="688" type="line"/>
      <point x="280" y="77" type="line" smooth="yes"/>
      <point x="280" y="24"/>
      <point x="278" y="25"/>
      <point x="206" y="19" type="curve"/>
      <point x="205" y="11"/>
      <point x="205" y="7"/>
    </contour>
    <contour>
      <point x="20" y="564" type="curve"/>
      <point x="27" y="563"/>
      <point x="32" y="563"/>
      <point x="39" y="564" type="curve"/>
      <point x="63" y="649"/>
      <point x="73" y="670"/>
      <point x="153" y="670" type="curve" smooth="yes"/>
      <point x="486" y="670" type="line" smooth="yes"/>
      <point x="565" y="670"/>
      <point x="573" y="650"/>
      <point x="600" y="564" type="curve"/>
      <point x="607" y="563"/>
      <point x="612" y="563"/>
      <point x="620" y="564" type="curve"/>
      <point x="614" y="610"/>
      <point x="609" y="663"/>
      <point x="606" y="702" type="curve"/>
      <point x="543" y="699"/>
      <point x="465" y="699"/>
      <point x="321" y="699" type="curve" smooth="yes"/>
      <point x="179" y="699"/>
      <point x="99" y="699"/>
      <point x="36" y="702" type="curve"/>
      <point x="32" y="662"/>
      <point x="26" y="610"/>
    </contour>
  </outline>
</glyph>
<glyph name="V" format="2">
  <advance width="666"/>
  <unicode hex="0056"/>
  <unicode hex="0076"/>
  <outline>
    <contour>
      <point x="685" y="701" type="curve"/>
      <point x="656" y="701"/>
      <point x="615" y="699"/>
      <point x="588" y="699" type="curve" smooth="yes"/>
      <point x="555" y="699"/>
      <point x="518" y="701"/>
      <point x="485" y="701" type="curve"/>
      <point x="484" y="693"/>
      <point x="484" y="689"/>
      <point x="485" y="681" type="curve"/>
      <point x="537" y="677"/>
      <point x="555" y="675"/>
      <point x="555" y="654" type="curve" smooth="yes"/>
      <point x="555" y="644"/>
      <point x="552" y="634"/>
      <point x="545" y="615" type="curve" smooth="yes"/>
      <point x="354" y="87" type="line"/>
      <point x="364" y="87" type="line"/>
      <point x="167" y="626" type="line"/>
      <point x="162" y="641"/>
      <point x="159" y="650"/>
      <point x="159" y="657" type="curve" smooth="yes"/>
      <point x="159" y="676"/>
      <point x="170" y="677"/>
      <point x="223" y="681" type="curve"/>
      <point x="224" y="689"/>
      <point x="224" y="693"/>
      <point x="223" y="701" type="curve"/>
      <point x="186" y="701"/>
      <point x="149" y="699"/>
      <point x="112" y="699" type="curve" smooth="yes"/>
      <point x="76" y="699"/>
      <point x="24" y="701"/>
      <point x="-11" y="701" type="curve"/>
      <point x="-12" y="693"/>
      <point x="-12" y="689"/>
      <point x="-11" y="681" type="curve"/>
      <point x="62" y="676"/>
      <point x="64" y="675"/>
      <point x="90" y="605" type="curve" smooth="yes"/>
      <point x="317" y="-5" type="line"/>
      <point x="327" y="-5"/>
      <point x="345" y="-3"/>
      <point x="355" y="1" type="curve"/>
      <point x="580" y="599" type="line" smooth="yes"/>
      <point x="607" y="673"/>
      <point x="613" y="676"/>
      <point x="685" y="681" type="curve"/>
      <point x="686" y="689"/>
      <point x="686" y="693"/>
    </contour>
  </outline>
</glyph>
<glyph name="W" format="2">
  <advance width="1034"/>
  <unicode hex="0057"/>
  <unicode hex="0077"/>
  <outline>
    <contour>
      <point x="680" y="-7" type="line"/>
      <point x="689" y="-6"/>
      <point x="708" y="-4"/>
      <point x="718" y="-1" type="curve"/>
      <point x="951" y="597" type="line" smooth="yes"/>
      <point x="981" y="673"/>
      <point x="989" y="676"/>
      <point x="1052" y="681" type="curve"/>
      <point x="1053" y="689"/>
      <point x="1053" y="693"/>
      <point x="1052" y="701" type="curve"/>
      <point x="1022" y="701"/>
      <point x="993" y="699"/>
      <point x="963" y="699" type="curve" smooth="yes"/>
      <point x="942" y="699"/>
      <point x="883" y="701"/>
      <point x="863" y="701" type="curve"/>
      <point x="862" y="693"/>
      <point x="862" y="689"/>
      <point x="863" y="681" type="curve"/>
      <point x="910" y="677"/>
      <point x="927" y="673"/>
      <point x="927" y="655" type="curve" smooth="yes"/>
      <point x="927" y="646"/>
      <point x="922" y="634"/>
      <point x="915" y="615" type="curve" smooth="yes"/>
      <point x="718" y="83" type="line"/>
      <point x="727" y="86" type="line"/>
      <point x="544" y="626" type="line" smooth="yes"/>
      <point x="539" y="641"/>
      <point x="537" y="650"/>
      <point x="537" y="657" type="curve" smooth="yes"/>
      <point x="537" y="676"/>
      <point x="553" y="677"/>
      <point x="607" y="681" type="curve"/>
      <point x="608" y="689"/>
      <point x="608" y="693"/>
      <point x="607" y="701" type="curve"/>
      <point x="575" y="701"/>
      <point x="522" y="699"/>
      <point x="492" y="699" type="curve" smooth="yes"/>
      <point x="459" y="699"/>
      <point x="418" y="701"/>
      <point x="385" y="701" type="curve"/>
      <point x="384" y="693"/>
      <point x="384" y="689"/>
      <point x="385" y="681" type="curve"/>
      <point x="442" y="676"/>
      <point x="444" y="676"/>
      <point x="468" y="605" type="curve" smooth="yes"/>
    </contour>
    <contour>
      <point x="307" y="-5" type="line"/>
      <point x="318" y="-4"/>
      <point x="336" y="-2"/>
      <point x="347" y="1" type="curve"/>
      <point x="554" y="492" type="line"/>
      <point x="536" y="534" type="line"/>
      <point x="345" y="84" type="line"/>
      <point x="355" y="88" type="line"/>
      <point x="172" y="626" type="line" smooth="yes"/>
      <point x="166" y="642"/>
      <point x="164" y="651"/>
      <point x="164" y="658" type="curve" smooth="yes"/>
      <point x="164" y="676"/>
      <point x="178" y="677"/>
      <point x="224" y="681" type="curve"/>
      <point x="225" y="689"/>
      <point x="225" y="693"/>
      <point x="224" y="701" type="curve"/>
      <point x="195" y="701"/>
      <point x="143" y="699"/>
      <point x="114" y="699" type="curve" smooth="yes"/>
      <point x="81" y="699"/>
      <point x="37" y="701"/>
      <point x="5" y="701" type="curve"/>
      <point x="4" y="693"/>
      <point x="4" y="689"/>
      <point x="5" y="681" type="curve"/>
      <point x="67" y="676"/>
      <point x="71" y="676"/>
      <point x="95" y="606" type="curve" smooth="yes"/>
    </contour>
  </outline>
</glyph>
<glyph name="X" format="2">
  <advance width="652"/>
  <unicode hex="0058"/>
  <unicode hex="0078"/>
  <outline>
    <contour>
      <point x="411" y="-1" type="curve"/>
      <point x="443" y="-1"/>
      <point x="500" y="1"/>
      <point x="531" y="1" type="curve" smooth="yes"/>
      <point x="568" y="1"/>
      <point x="610" y="-1"/>
      <point x="646" y="-1" type="curve"/>
      <point x="647" y="7"/>
      <point x="647" y="11"/>
      <point x="646" y="19" type="curve"/>
      <point x="585" y="24"/>
      <point x="574" y="28"/>
      <point x="535" y="93" type="curve" smooth="yes"/>
      <point x="210" y="630" type="line" smooth="yes"/>
      <point x="201" y="645"/>
      <point x="197" y="654"/>
      <point x="197" y="661" type="curve" smooth="yes"/>
      <point x="197" y="673"/>
      <point x="212" y="678"/>
      <point x="253" y="681" type="curve"/>
      <point x="254" y="689"/>
      <point x="254" y="693"/>
      <point x="253" y="701" type="curve"/>
      <point x="222" y="701"/>
      <point x="168" y="699"/>
      <point x="136" y="699" type="curve" smooth="yes"/>
      <point x="101" y="699"/>
      <point x="56" y="701"/>
      <point x="21" y="701" type="curve"/>
      <point x="20" y="693"/>
      <point x="20" y="689"/>
      <point x="21" y="681" type="curve"/>
      <point x="80" y="676"/>
      <point x="93" y="671"/>
      <point x="132" y="607" type="curve" smooth="yes"/>
      <point x="457" y="70" type="line" smooth="yes"/>
      <point x="466" y="55"/>
      <point x="471" y="46"/>
      <point x="471" y="39" type="curve" smooth="yes"/>
      <point x="471" y="27"/>
      <point x="454" y="22"/>
      <point x="411" y="19" type="curve"/>
      <point x="410" y="11"/>
      <point x="410" y="7"/>
    </contour>
    <contour>
      <point x="292" y="353" type="line"/>
      <point x="124" y="100" type="line" smooth="yes"/>
      <point x="78" y="31"/>
      <point x="66" y="24"/>
      <point x="3" y="19" type="curve"/>
      <point x="2" y="11"/>
      <point x="2" y="7"/>
      <point x="3" y="-1" type="curve"/>
      <point x="25" y="-1"/>
      <point x="60" y="1"/>
      <point x="91" y="1" type="curve" smooth="yes"/>
      <point x="111" y="1"/>
      <point x="180" y="-1"/>
      <point x="201" y="-1" type="curve"/>
      <point x="202" y="7"/>
      <point x="202" y="11"/>
      <point x="201" y="19" type="curve"/>
      <point x="156" y="23"/>
      <point x="135" y="27"/>
      <point x="135" y="41" type="curve" smooth="yes"/>
      <point x="135" y="48"/>
      <point x="141" y="58"/>
      <point x="150" y="72" type="curve" smooth="yes"/>
      <point x="313" y="322" type="line"/>
    </contour>
    <contour>
      <point x="350" y="370" type="line"/>
      <point x="504" y="601" type="line" smooth="yes"/>
      <point x="548" y="668"/>
      <point x="565" y="676"/>
      <point x="626" y="681" type="curve"/>
      <point x="627" y="689"/>
      <point x="627" y="693"/>
      <point x="626" y="701" type="curve"/>
      <point x="609" y="701"/>
      <point x="569" y="699"/>
      <point x="538" y="699" type="curve" smooth="yes"/>
      <point x="517" y="699"/>
      <point x="452" y="701"/>
      <point x="431" y="701" type="curve"/>
      <point x="430" y="693"/>
      <point x="430" y="689"/>
      <point x="431" y="681" type="curve"/>
      <point x="474" y="676"/>
      <point x="493" y="673"/>
      <point x="493" y="659" type="curve" smooth="yes"/>
      <point x="493" y="652"/>
      <point x="489" y="643"/>
      <point x="479" y="628" type="curve" smooth="yes"/>
      <point x="330" y="400" type="line"/>
    </contour>
  </outline>
</glyph>
<glyph name="Y" format="2">
  <advance width="610"/>
  <unicode hex="0059"/>
  <unicode hex="0079"/>
  <outline>
    <contour>
      <point x="512" y="602" type="line" smooth="yes"/>
      <point x="551" y="672"/>
      <point x="557" y="676"/>
      <point x="618" y="681" type="curve"/>
      <point x="619" y="689"/>
      <point x="619" y="693"/>
      <point x="618" y="701" type="curve"/>
      <point x="588" y="701"/>
      <point x="558" y="699"/>
      <point x="528" y="699" type="curve" smooth="yes"/>
      <point x="504" y="699"/>
      <point x="456" y="701"/>
      <point x="432" y="701" type="curve"/>
      <point x="431" y="693"/>
      <point x="431" y="689"/>
      <point x="432" y="681" type="curve"/>
      <point x="480" y="677"/>
      <point x="499" y="673"/>
      <point x="499" y="658" type="curve" smooth="yes"/>
      <point x="499" y="651"/>
      <point x="494" y="642"/>
      <point x="485" y="626" type="curve" smooth="yes"/>
      <point x="325" y="335" type="line"/>
      <point x="334" y="334" type="line"/>
      <point x="173" y="626" type="line" smooth="yes"/>
      <point x="164" y="642"/>
      <point x="159" y="653"/>
      <point x="159" y="660" type="curve" smooth="yes"/>
      <point x="159" y="674"/>
      <point x="174" y="679"/>
      <point x="216" y="681" type="curve"/>
      <point x="217" y="689"/>
      <point x="217" y="693"/>
      <point x="216" y="701" type="curve"/>
      <point x="181" y="701"/>
      <point x="140" y="699"/>
      <point x="110" y="699" type="curve" smooth="yes"/>
      <point x="74" y="699"/>
      <point x="30" y="701"/>
      <point x="-4" y="701" type="curve"/>
      <point x="-5" y="693"/>
      <point x="-5" y="689"/>
      <point x="-4" y="681" type="curve"/>
      <point x="56" y="676"/>
      <point x="58" y="672"/>
      <point x="94" y="607" type="curve" smooth="yes"/>
      <point x="273" y="285" type="line"/>
      <point x="333" y="285" type="line"/>
    </contour>
    <contour>
      <point x="189" y="-1" type="curve"/>
      <point x="219" y="-1"/>
      <point x="277" y="1"/>
      <point x="305" y="1" type="curve" smooth="yes"/>
      <point x="332" y="1"/>
      <point x="391" y="-1"/>
      <point x="421" y="-1" type="curve"/>
      <point x="422" y="7"/>
      <point x="422" y="11"/>
      <point x="421" y="19" type="curve"/>
      <point x="347" y="24"/>
      <point x="345" y="25"/>
      <point x="345" y="86" type="curve" smooth="yes"/>
      <point x="345" y="315" type="line"/>
      <point x="265" y="315" type="line"/>
      <point x="265" y="77" type="line" smooth="yes"/>
      <point x="265" y="25"/>
      <point x="262" y="25"/>
      <point x="189" y="19" type="curve"/>
      <point x="188" y="11"/>
      <point x="188" y="7"/>
    </contour>
  </outline>
</glyph>
<glyph name="bracketright" format="2">
  <advance width="355"/>
  <unicode hex="005D"/>
  <outline>
    <contour>
      <point x="265" y="-109" type="line"/>
      <point x="265" y="807" type="line"/>
      <point x="60" y="807" type="line"/>
      <point x="60" y="769" type="line"/>
      <point x="200" y="769" type="line"/>
      <point x="200" y="-70" type="line"/>
      <point x="60" y="-70" type="line"/>
      <point x="60" y="-109" type="line"/>
    </contour>
  </outline>
</glyph>
<glyph name="asciicircum" format="2">
  <advance width="543"/>
  <unicode hex="005E"/>
  <outline>
    <contour>
      <point x="70" y="354" type="line"/>
      <point x="82" y="347"/>
      <point x="98" y="339"/>
      <point x="111" y="334" type="curve"/>
      <point x="279" y="659" type="line"/>
      <point x="265" y="659" type="line"/>
      <point x="433" y="334" type="line"/>
      <point x="446" y="339"/>
      <point x="461" y="347"/>
      <point x="473" y="354" type="curve"/>
      <point x="288" y="710" type="line"/>
      <point x="279" y="710"/>
      <point x="265" y="711"/>
      <point x="255" y="710" type="curve"/>
    </contour>
  </outline>
  <guideline angle="61.3302" x="-35" y="0"/>
</glyph>
<glyph name="braceleft" format="2">
  <advance width="358"/>
  <unicode hex="007B"/>
  <outline>
    <contour>
      <point x="113" y="351" type="line"/>
      <point x="191" y="366"/>
      <point x="203" y="404"/>
      <point x="203" y="474" type="curve" smooth="yes"/>
      <point x="203" y="694" type="line" smooth="yes"/>
      <point x="203" y="760"/>
      <point x="234" y="788"/>
      <point x="298" y="788" type="curve"/>
      <point x="298" y="815" type="line"/>
      <point x="186" y="815"/>
      <point x="130" y="788"/>
      <point x="130" y="667" type="curve" smooth="yes"/>
      <point x="130" y="450" type="line" smooth="yes"/>
      <point x="130" y="384"/>
      <point x="110" y="369"/>
      <point x="50" y="360" type="curve"/>
      <point x="50" y="338" type="line"/>
      <point x="110" y="329"/>
      <point x="130" y="314"/>
      <point x="130" y="247" type="curve" smooth="yes"/>
      <point x="130" y="32" type="line" smooth="yes"/>
      <point x="130" y="-91"/>
      <point x="186" y="-117"/>
      <point x="298" y="-117" type="curve"/>
      <point x="298" y="-91" type="line"/>
      <point x="234" y="-91"/>
      <point x="203" y="-62"/>
      <point x="203" y="5" type="curve" smooth="yes"/>
      <point x="203" y="223" type="line" smooth="yes"/>
      <point x="203" y="294"/>
      <point x="191" y="331"/>
      <point x="113" y="347" type="curve"/>
    </contour>
  </outline>
  <guideline angle="0" x="0" y="348"/>
</glyph>
<glyph name="braceright" format="2">
  <advance width="358"/>
  <unicode hex="007D"/>
  <outline>
    <contour>
      <point x="245" y="347" type="line"/>
      <point x="167" y="331"/>
      <point x="155" y="294"/>
      <point x="155" y="223" type="curve" smooth="yes"/>
      <point x="155" y="5" type="line" smooth="yes"/>
      <point x="155" y="-62"/>
      <point x="124" y="-91"/>
      <point x="60" y="-91" type="curve"/>
      <point x="60" y="-117" type="line"/>
      <point x="172" y="-117"/>
      <point x="228" y="-91"/>
      <point x="228" y="32" type="curve" smooth="yes"/>
      <point x="228" y="247" type="line" smooth="yes"/>
      <point x="228" y="314"/>
      <point x="248" y="329"/>
      <point x="308" y="338" type="curve"/>
      <point x="308" y="360" type="line"/>
      <point x="248" y="369"/>
      <point x="228" y="384"/>
      <point x="228" y="450" type="curve" smooth="yes"/>
      <point x="228" y="667" type="line" smooth="yes"/>
      <point x="228" y="788"/>
      <point x="172" y="815"/>
      <point x="60" y="815" type="curve"/>
      <point x="60" y="788" type="line"/>
      <point x="124" y="788"/>
      <point x="155" y="760"/>
      <point x="155" y="694" type="curve" smooth="yes"/>
      <point x="155" y="474" type="line" smooth="yes"/>
      <point x="155" y="404"/>
      <point x="167" y="366"/>
      <point x="245" y="351" type="curve"/>
    </contour>
  </outline>
  <guideline angle="0" x="0" y="348"/>
</glyph>
<glyph name="asciitilde" format="2">
  <advance width="509"/>
  <unicode hex="007E"/>
  <outline>
    <contour>
      <point x="463" y="392" type="curve"/>
      <point x="429" y="365"/>
      <point x="396" y="358"/>
      <point x="363" y="358" type="curve" smooth="yes"/>
      <point x="337" y="358"/>
      <point x="311" y="364"/>
      <point x="255" y="384" type="curve" smooth="yes"/>
      <point x="219" y="397"/>
      <point x="184" y="410"/>
      <point x="147" y="410" type="curve" smooth="yes"/>
      <point x="113" y="410"/>
      <point x="81" y="401"/>
      <point x="47" y="374" type="curve"/>
      <point x="45" y="361"/>
      <point x="45" y="339"/>
      <point x="47" y="327" type="curve"/>
      <point x="81" y="353"/>
      <point x="113" y="361"/>
      <point x="147" y="361" type="curve" smooth="yes"/>
      <point x="181" y="361"/>
      <point x="216" y="349"/>
      <point x="256" y="334" type="curve"/>
      <point x="288" y="323"/>
      <point x="326" y="310"/>
      <point x="363" y="310" type="curve" smooth="yes"/>
      <point x="396" y="310"/>
      <point x="429" y="319"/>
      <point x="463" y="345" type="curve"/>
      <point x="464" y="357"/>
      <point x="464" y="380"/>
    </contour>
  </outline>
</glyph>
<glyph name="registered" format="2">
  <advance width="535"/>
  <unicode hex="00AE"/>
  <outline>
    <contour>
      <point x="269" y="338" type="curve" smooth="yes"/>
      <point x="398" y="338"/>
      <point x="485" y="424"/>
      <point x="485" y="554" type="curve" smooth="yes"/>
      <point x="485" y="684"/>
      <point x="398" y="769"/>
      <point x="269" y="769" type="curve" smooth="yes"/>
      <point x="136" y="769"/>
      <point x="50" y="684"/>
      <point x="50" y="554" type="curve" smooth="yes"/>
      <point x="50" y="424"/>
      <point x="136" y="338"/>
    </contour>
    <contour>
      <point x="269" y="361" type="curve" smooth="yes"/>
      <point x="153" y="361"/>
      <point x="81" y="438"/>
      <point x="81" y="554" type="curve" smooth="yes"/>
      <point x="81" y="668"/>
      <point x="153" y="746"/>
      <point x="269" y="746" type="curve" smooth="yes"/>
      <point x="382" y="746"/>
      <point x="455" y="668"/>
      <point x="455" y="554" type="curve" smooth="yes"/>
      <point x="455" y="438"/>
      <point x="382" y="361"/>
    </contour>
    <contour>
      <point x="228" y="546" type="line"/>
      <point x="250" y="544" type="line"/>
      <point x="264" y="542"/>
      <point x="265" y="539"/>
      <point x="275" y="526" type="curve"/>
      <point x="331" y="435" type="line"/>
      <point x="339" y="436"/>
      <point x="347" y="436"/>
      <point x="355" y="436" type="curve" smooth="yes"/>
      <point x="376" y="436"/>
      <point x="405" y="435"/>
      <point x="413" y="435" type="curve"/>
      <point x="414" y="440"/>
      <point x="414" y="445"/>
      <point x="413" y="449" type="curve"/>
      <point x="377" y="452"/>
      <point x="373" y="454"/>
      <point x="343" y="501" type="curve" smooth="yes"/>
      <point x="323" y="531" type="line"/>
      <point x="315" y="542"/>
      <point x="310" y="549"/>
      <point x="295" y="554" type="curve"/>
      <point x="305" y="544" type="line"/>
      <point x="305" y="551" type="line"/>
      <point x="344" y="566"/>
      <point x="366" y="590"/>
      <point x="366" y="620" type="curve" smooth="yes"/>
      <point x="366" y="661"/>
      <point x="326" y="684"/>
      <point x="270" y="684" type="curve" smooth="yes"/>
      <point x="260" y="684"/>
      <point x="238" y="683"/>
      <point x="209" y="683" type="curve" smooth="yes"/>
      <point x="181" y="683"/>
      <point x="168" y="684"/>
      <point x="144" y="684" type="curve"/>
      <point x="142" y="679"/>
      <point x="142" y="674"/>
      <point x="144" y="669" type="curve"/>
      <point x="183" y="666"/>
      <point x="187" y="665"/>
      <point x="187" y="628" type="curve" smooth="yes"/>
      <point x="187" y="487" type="line" smooth="yes"/>
      <point x="187" y="455"/>
      <point x="183" y="454"/>
      <point x="144" y="450" type="curve"/>
      <point x="142" y="446"/>
      <point x="142" y="440"/>
      <point x="144" y="435" type="curve"/>
      <point x="163" y="435"/>
      <point x="195" y="436"/>
      <point x="206" y="436" type="curve" smooth="yes"/>
      <point x="218" y="436"/>
      <point x="247" y="435"/>
      <point x="267" y="435" type="curve"/>
      <point x="268" y="440"/>
      <point x="268" y="446"/>
      <point x="267" y="450" type="curve"/>
      <point x="237" y="454"/>
      <point x="232" y="455"/>
      <point x="232" y="491" type="curve" smooth="yes"/>
      <point x="232" y="669" type="line"/>
      <point x="225" y="663" type="line"/>
      <point x="239" y="665"/>
      <point x="249" y="665"/>
      <point x="257" y="665" type="curve" smooth="yes"/>
      <point x="293" y="665"/>
      <point x="315" y="646"/>
      <point x="315" y="613" type="curve" smooth="yes"/>
      <point x="315" y="581"/>
      <point x="291" y="561"/>
      <point x="256" y="561" type="curve" smooth="yes"/>
      <point x="247" y="561"/>
      <point x="239" y="561"/>
      <point x="228" y="563" type="curve"/>
    </contour>
  </outline>
</glyph>
<glyph name="plusminus" format="2">
  <advance width="509"/>
  <unicode hex="00B1"/>
  <outline>
    <contour>
      <point x="463" y="370" type="line"/>
      <point x="464" y="383"/>
      <point x="464" y="400"/>
      <point x="463" y="414" type="curve"/>
      <point x="46" y="414" type="line"/>
      <point x="45" y="400"/>
      <point x="45" y="383"/>
      <point x="46" y="370" type="curve"/>
    </contour>
    <contour>
      <point x="463" y="121" type="line"/>
      <point x="464" y="134"/>
      <point x="464" y="151"/>
      <point x="463" y="165" type="curve"/>
      <point x="46" y="165" type="line"/>
      <point x="45" y="151"/>
      <point x="45" y="134"/>
      <point x="46" y="121" type="curve"/>
    </contour>
    <contour>
      <point x="233" y="216" type="line"/>
      <point x="245" y="215"/>
      <point x="264" y="215"/>
      <point x="277" y="216" type="curve"/>
      <point x="277" y="576" type="line"/>
      <point x="264" y="577"/>
      <point x="245" y="577"/>
      <point x="233" y="576" type="curve"/>
    </contour>
  </outline>
</glyph>
<glyph name="twosuperior" format="2">
  <advance width="351"/>
  <unicode hex="00B2"/>
  <outline>
    <contour>
      <point x="285" y="334" type="curve"/>
      <point x="290" y="366"/>
      <point x="300" y="407"/>
      <point x="309" y="441" type="curve"/>
      <point x="303" y="444"/>
      <point x="296" y="445"/>
      <point x="291" y="445" type="curve"/>
      <point x="270" y="392"/>
      <point x="262" y="386"/>
      <point x="236" y="386" type="curve" smooth="yes"/>
      <point x="227" y="386"/>
      <point x="165" y="385"/>
      <point x="94" y="385" type="curve"/>
      <point x="211" y="493"/>
      <point x="288" y="573"/>
      <point x="288" y="649" type="curve" smooth="yes"/>
      <point x="288" y="718"/>
      <point x="234" y="755"/>
      <point x="168" y="755" type="curve" smooth="yes"/>
      <point x="113" y="755"/>
      <point x="70" y="735"/>
      <point x="35" y="699" type="curve"/>
      <point x="38" y="694"/>
      <point x="41" y="690"/>
      <point x="46" y="686" type="curve"/>
      <point x="73" y="705"/>
      <point x="105" y="715"/>
      <point x="140" y="715" type="curve" smooth="yes"/>
      <point x="187" y="715"/>
      <point x="224" y="686"/>
      <point x="224" y="631" type="curve" smooth="yes"/>
      <point x="224" y="565"/>
      <point x="172" y="478"/>
      <point x="22" y="352" type="curve"/>
      <point x="22" y="345"/>
      <point x="23" y="340"/>
      <point x="26" y="334" type="curve"/>
      <point x="43" y="335"/>
      <point x="81" y="335"/>
      <point x="128" y="335" type="curve" smooth="yes"/>
      <point x="177" y="335"/>
      <point x="234" y="335"/>
    </contour>
  </outline>
</glyph>
<glyph name="threesuperior" format="2">
  <advance width="354"/>
  <unicode hex="00B3"/>
  <outline>
    <contour>
      <point x="92" y="547" type="line"/>
      <point x="93" y="540"/>
      <point x="94" y="535"/>
      <point x="98" y="529" type="curve"/>
      <point x="111" y="532"/>
      <point x="121" y="534"/>
      <point x="136" y="534" type="curve" smooth="yes"/>
      <point x="208" y="534"/>
      <point x="246" y="485"/>
      <point x="246" y="435" type="curve" smooth="yes"/>
      <point x="246" y="381"/>
      <point x="201" y="346"/>
      <point x="148" y="346" type="curve" smooth="yes"/>
      <point x="139" y="346"/>
      <point x="123" y="347"/>
      <point x="110" y="350" type="curve"/>
      <point x="121" y="341" type="line"/>
      <point x="112" y="389"/>
      <point x="88" y="415"/>
      <point x="63" y="415" type="curve" smooth="yes"/>
      <point x="45" y="415"/>
      <point x="33" y="402"/>
      <point x="33" y="384" type="curve" smooth="yes"/>
      <point x="33" y="348"/>
      <point x="86" y="324"/>
      <point x="146" y="324" type="curve" smooth="yes"/>
      <point x="222" y="324"/>
      <point x="306" y="362"/>
      <point x="306" y="454" type="curve" smooth="yes"/>
      <point x="306" y="519"/>
      <point x="263" y="558"/>
      <point x="176" y="568" type="curve"/>
    </contour>
    <contour>
      <point x="177" y="560" type="line"/>
      <point x="257" y="590"/>
      <point x="289" y="627"/>
      <point x="289" y="669" type="curve" smooth="yes"/>
      <point x="289" y="712"/>
      <point x="254" y="755"/>
      <point x="177" y="755" type="curve" smooth="yes"/>
      <point x="133" y="755"/>
      <point x="85" y="741"/>
      <point x="47" y="700" type="curve"/>
      <point x="50" y="694"/>
      <point x="52" y="690"/>
      <point x="58" y="685" type="curve"/>
      <point x="82" y="703"/>
      <point x="115" y="715"/>
      <point x="148" y="715" type="curve" smooth="yes"/>
      <point x="202" y="715"/>
      <point x="228" y="682"/>
      <point x="228" y="650" type="curve" smooth="yes"/>
      <point x="228" y="610"/>
      <point x="188" y="572"/>
      <point x="92" y="547" type="curve"/>
    </contour>
  </outline>
</glyph>
<glyph name="micro" format="2">
  <advance width="590"/>
  <unicode hex="00B5"/>
  <outline>
    <contour>
      <point x="111" y="119" type="curve" smooth="yes"/>
      <point x="111" y="-106"/>
      <point x="109" y="-169"/>
      <point x="108" y="-212" type="curve"/>
      <point x="193" y="-207" type="line"/>
      <point x="184" y="-113"/>
      <point x="177" y="4"/>
      <point x="172" y="106" type="curve"/>
      <point x="184" y="421"/>
      <point x="185" y="414"/>
      <point x="188" y="460" type="curve"/>
      <point x="107" y="455" type="line"/>
      <point x="108" y="412"/>
      <point x="111" y="395"/>
    </contour>
    <contour>
      <point x="502" y="-9" type="curve" smooth="yes"/>
      <point x="548" y="-9"/>
      <point x="575" y="28"/>
      <point x="575" y="65" type="curve" smooth="yes"/>
      <point x="575" y="72"/>
      <point x="575" y="80"/>
      <point x="573" y="89" type="curve"/>
      <point x="570" y="90" type="line"/>
      <point x="560" y="74"/>
      <point x="543" y="60"/>
      <point x="518" y="60" type="curve" smooth="yes"/>
      <point x="484" y="60"/>
      <point x="470" y="78"/>
      <point x="470" y="118" type="curve" smooth="yes"/>
      <point x="470" y="277"/>
      <point x="479" y="423"/>
      <point x="481" y="460" type="curve"/>
      <point x="396" y="455" type="line"/>
      <point x="398" y="427"/>
      <point x="401" y="373"/>
      <point x="411" y="104" type="curve"/>
      <point x="421" y="35"/>
      <point x="451" y="-9"/>
    </contour>
    <contour>
      <point x="164" y="82" type="line"/>
      <point x="176" y="83" type="line"/>
      <point x="197" y="21"/>
      <point x="236" y="-12"/>
      <point x="285" y="-12" type="curve" smooth="yes"/>
      <point x="340" y="-12"/>
      <point x="377" y="31"/>
      <point x="410" y="97" type="curve"/>
      <point x="421" y="96" type="line"/>
      <point x="412" y="144" type="line"/>
      <point x="379" y="99"/>
      <point x="341" y="68"/>
      <point x="286" y="68" type="curve" smooth="yes"/>
      <point x="232" y="68"/>
      <point x="191" y="98"/>
      <point x="169" y="144" type="curve"/>
    </contour>
  </outline>
</glyph>
<glyph name="onesuperior" format="2">
  <advance width="299"/>
  <unicode hex="00B9"/>
  <outline>
    <contour>
      <point x="66" y="354" type="curve"/>
      <point x="65" y="347"/>
      <point x="65" y="340"/>
      <point x="66" y="334" type="curve"/>
      <point x="90" y="334"/>
      <point x="111" y="336"/>
      <point x="155" y="336" type="curve" smooth="yes"/>
      <point x="202" y="336"/>
      <point x="220" y="334"/>
      <point x="240" y="334" type="curve"/>
      <point x="241" y="340"/>
      <point x="241" y="347"/>
      <point x="240" y="354" type="curve"/>
      <point x="184" y="359"/>
      <point x="183" y="359"/>
      <point x="183" y="412" type="curve" smooth="yes"/>
      <point x="183" y="668" type="line" smooth="yes"/>
      <point x="183" y="703"/>
      <point x="188" y="728"/>
      <point x="198" y="742" type="curve"/>
      <point x="196" y="747"/>
      <point x="193" y="751"/>
      <point x="189" y="755" type="curve"/>
      <point x="140" y="734"/>
      <point x="105" y="721"/>
      <point x="47" y="704" type="curve"/>
      <point x="48" y="697"/>
      <point x="49" y="692"/>
      <point x="52" y="685" type="curve"/>
      <point x="78" y="690"/>
      <point x="97" y="693"/>
      <point x="106" y="693" type="curve" smooth="yes"/>
      <point x="121" y="693"/>
      <point x="123" y="687"/>
      <point x="123" y="666" type="curve" smooth="yes"/>
      <point x="123" y="405" type="line" smooth="yes"/>
      <point x="123" y="362"/>
      <point x="122" y="359"/>
    </contour>
  </outline>
</glyph>
<glyph name="ordmasculine" format="2">
  <advance width="416"/>
  <unicode hex="00BA"/>
  <outline>
    <contour>
      <point x="206" y="298" type="curve" smooth="yes"/>
      <point x="305" y="298"/>
      <point x="376" y="366"/>
      <point x="376" y="466" type="curve" smooth="yes"/>
      <point x="376" y="561"/>
      <point x="310" y="630"/>
      <point x="211" y="630" type="curve" smooth="yes"/>
      <point x="113" y="630"/>
      <point x="40" y="563"/>
      <point x="40" y="460" type="curve" smooth="yes"/>
      <point x="40" y="363"/>
      <point x="105" y="298"/>
    </contour>
    <contour>
      <point x="107" y="467" type="curve" smooth="yes"/>
      <point x="107" y="553"/>
      <point x="142" y="606"/>
      <point x="208" y="606" type="curve" smooth="yes"/>
      <point x="275" y="606"/>
      <point x="310" y="550"/>
      <point x="310" y="459" type="curve" smooth="yes"/>
      <point x="310" y="374"/>
      <point x="274" y="321"/>
      <point x="209" y="321" type="curve" smooth="yes"/>
      <point x="142" y="321"/>
      <point x="107" y="378"/>
    </contour>
    <contour>
      <point x="354" y="216" type="line"/>
      <point x="355" y="226"/>
      <point x="355" y="236"/>
      <point x="354" y="247" type="curve"/>
      <point x="63" y="247" type="line"/>
      <point x="62" y="236"/>
      <point x="62" y="226"/>
      <point x="63" y="216" type="curve"/>
    </contour>
  </outline>
  <guideline angle="90" x="35" y="0"/>
  <guideline angle="90" x="381" y="0"/>
</glyph>
<glyph name="guillemotright" format="2">
  <advance width="492"/>
  <unicode hex="00BB"/>
  <outline>
    <contour>
      <point x="360" y="357" type="line"/>
      <point x="321" y="322"/>
      <point x="255" y="244"/>
      <point x="224" y="191" type="curve"/>
      <point x="228" y="185"/>
      <point x="233" y="181"/>
      <point x="240" y="177" type="curve"/>
      <point x="291" y="229"/>
      <point x="364" y="289"/>
      <point x="430" y="336" type="curve"/>
      <point x="431" y="343"/>
      <point x="432" y="351"/>
      <point x="432" y="358" type="curve"/>
      <point x="432" y="360"/>
      <point x="432" y="364"/>
      <point x="431" y="367" type="curve"/>
      <point x="368" y="411"/>
      <point x="297" y="472"/>
      <point x="244" y="525" type="curve"/>
      <point x="237" y="521"/>
      <point x="233" y="518"/>
      <point x="229" y="512" type="curve"/>
      <point x="259" y="460"/>
      <point x="321" y="382"/>
      <point x="360" y="346" type="curve"/>
    </contour>
    <contour>
      <point x="185" y="356" type="line"/>
      <point x="148" y="323"/>
      <point x="84" y="249"/>
      <point x="55" y="199" type="curve"/>
      <point x="59" y="193"/>
      <point x="64" y="189"/>
      <point x="71" y="185" type="curve"/>
      <point x="120" y="234"/>
      <point x="190" y="291"/>
      <point x="253" y="336" type="curve"/>
      <point x="254" y="343"/>
      <point x="255" y="351"/>
      <point x="255" y="358" type="curve"/>
      <point x="255" y="360"/>
      <point x="255" y="364"/>
      <point x="254" y="367" type="curve"/>
      <point x="194" y="409"/>
      <point x="126" y="467"/>
      <point x="75" y="517" type="curve"/>
      <point x="68" y="513"/>
      <point x="64" y="510"/>
      <point x="60" y="504" type="curve"/>
      <point x="88" y="455"/>
      <point x="148" y="381"/>
      <point x="185" y="347" type="curve"/>
    </contour>
  </outline>
  <guideline angle="0" x="0" y="344"/>
</glyph>
<glyph name="multiply" format="2">
  <advance width="509"/>
  <unicode hex="00D7"/>
  <outline>
    <contour>
      <point x="56" y="515" type="curve"/>
      <point x="421" y="151" type="line"/>
      <point x="430" y="158"/>
      <point x="444" y="173"/>
      <point x="452" y="183" type="curve"/>
      <point x="88" y="547" type="line"/>
      <point x="79" y="539"/>
      <point x="64" y="524"/>
    </contour>
    <contour>
      <point x="453" y="515" type="line"/>
      <point x="445" y="524"/>
      <point x="431" y="537"/>
      <point x="421" y="547" type="curve"/>
      <point x="56" y="183" type="line"/>
      <point x="65" y="171"/>
      <point x="79" y="158"/>
      <point x="89" y="151" type="curve"/>
    </contour>
  </outline>
</glyph>
<glyph name="Thorn" format="2">
  <advance width="604"/>
  <unicode hex="00DE"/>
  <unicode hex="00FE"/>
  <outline>
    <contour>
      <point x="92" y="-1" type="curve"/>
      <point x="123" y="-1"/>
      <point x="177" y="1"/>
      <point x="205" y="1" type="curve" smooth="yes"/>
      <point x="233" y="1"/>
      <point x="292" y="-1"/>
      <point x="322" y="-1" type="curve"/>
      <point x="323" y="7"/>
      <point x="323" y="11"/>
      <point x="322" y="19" type="curve"/>
      <point x="247" y="24"/>
      <point x="245" y="25"/>
      <point x="245" y="86" type="curve" smooth="yes"/>
      <point x="245" y="623" type="line" smooth="yes"/>
      <point x="245" y="675"/>
      <point x="249" y="675"/>
      <point x="322" y="681" type="curve"/>
      <point x="323" y="689"/>
      <point x="323" y="693"/>
      <point x="322" y="701" type="curve"/>
      <point x="293" y="701"/>
      <point x="233" y="699"/>
      <point x="206" y="699" type="curve" smooth="yes"/>
      <point x="178" y="699"/>
      <point x="122" y="701"/>
      <point x="92" y="701" type="curve"/>
      <point x="91" y="693"/>
      <point x="91" y="689"/>
      <point x="92" y="681" type="curve"/>
      <point x="161" y="676"/>
      <point x="165" y="674"/>
      <point x="165" y="614" type="curve" smooth="yes"/>
      <point x="165" y="77" type="line" smooth="yes"/>
      <point x="165" y="25"/>
      <point x="162" y="25"/>
      <point x="92" y="19" type="curve"/>
      <point x="91" y="11"/>
      <point x="91" y="7"/>
    </contour>
    <contour>
      <point x="236" y="178" type="line"/>
      <point x="272" y="170"/>
      <point x="306" y="169"/>
      <point x="322" y="169" type="curve" smooth="yes"/>
      <point x="459" y="169"/>
      <point x="554" y="242"/>
      <point x="554" y="376" type="curve" smooth="yes"/>
      <point x="554" y="496"/>
      <point x="478" y="559"/>
      <point x="316" y="559" type="curve" smooth="yes"/>
      <point x="296" y="559"/>
      <point x="269" y="558"/>
      <point x="235" y="554" type="curve"/>
      <point x="235" y="524" type="line"/>
      <point x="263" y="527"/>
      <point x="285" y="529"/>
      <point x="305" y="529" type="curve" smooth="yes"/>
      <point x="413" y="529"/>
      <point x="467" y="469"/>
      <point x="467" y="371" type="curve" smooth="yes"/>
      <point x="467" y="267"/>
      <point x="406" y="200"/>
      <point x="295" y="200" type="curve" smooth="yes"/>
      <point x="282" y="200"/>
      <point x="265" y="201"/>
      <point x="236" y="207" type="curve"/>
    </contour>
  </outline>
</glyph>
<glyph name="Germandbls" format="2">
  <advance width="763"/>
  <unicode hex="00DF"/>
  <unicode hex="1E9E"/>
  <outline>
    <contour>
      <point x="483" y="377" type="line"/>
      <point x="652" y="663" type="line"/>
      <point x="651" y="669"/>
      <point x="650" y="672"/>
      <point x="648" y="676" type="curve"/>
      <point x="569" y="673" type="line"/>
      <point x="399" y="377" type="line"/>
      <point x="399" y="372"/>
      <point x="400" y="369"/>
      <point x="402" y="364" type="curve"/>
    </contour>
    <contour>
      <point x="402" y="364" type="line"/>
      <point x="525" y="343"/>
      <point x="621" y="296"/>
      <point x="621" y="164" type="curve" smooth="yes"/>
      <point x="621" y="72"/>
      <point x="573" y="16"/>
      <point x="497" y="16" type="curve" smooth="yes"/>
      <point x="429" y="16"/>
      <point x="365" y="60"/>
      <point x="351" y="146" type="curve"/>
      <point x="344" y="146"/>
      <point x="341" y="146"/>
      <point x="333" y="145" type="curve"/>
      <point x="336" y="92"/>
      <point x="339" y="42"/>
      <point x="339" y="3" type="curve"/>
      <point x="356" y="3"/>
      <point x="381" y="0"/>
      <point x="420" y="-5" type="curve" smooth="yes"/>
      <point x="468" y="-11"/>
      <point x="480" y="-12"/>
      <point x="496" y="-12" type="curve" smooth="yes"/>
      <point x="658" y="-12"/>
      <point x="708" y="89"/>
      <point x="708" y="174" type="curve" smooth="yes"/>
      <point x="708" y="304"/>
      <point x="605" y="355"/>
      <point x="465" y="382" type="curve"/>
    </contour>
    <contour>
      <point x="648" y="676" type="line"/>
      <point x="592" y="697"/>
      <point x="523" y="711"/>
      <point x="440" y="711" type="curve" smooth="yes"/>
      <point x="270" y="711"/>
      <point x="140" y="652"/>
      <point x="140" y="452" type="curve" smooth="yes"/>
      <point x="140" y="85" type="line" smooth="yes"/>
      <point x="140" y="25"/>
      <point x="137" y="24"/>
      <point x="68" y="19" type="curve"/>
      <point x="67" y="11"/>
      <point x="67" y="7"/>
      <point x="68" y="-1" type="curve"/>
      <point x="97" y="-1"/>
      <point x="153" y="1"/>
      <point x="175" y="1" type="curve" smooth="yes"/>
      <point x="191" y="1"/>
      <point x="210" y="0"/>
      <point x="219" y="0" type="curve"/>
      <point x="220" y="8"/>
      <point x="220" y="18"/>
      <point x="220" y="28" type="curve" smooth="yes"/>
      <point x="220" y="456" type="line" smooth="yes"/>
      <point x="220" y="638"/>
      <point x="332" y="677"/>
      <point x="447" y="677" type="curve" smooth="yes"/>
      <point x="510" y="677"/>
      <point x="581" y="665"/>
      <point x="626" y="647" type="curve"/>
    </contour>
  </outline>
</glyph>
<glyph name="divide" format="2">
  <advance width="509"/>
  <unicode hex="00F7"/>
  <outline>
    <contour>
      <point x="205" y="489" type="curve" smooth="yes"/>
      <point x="205" y="464"/>
      <point x="228" y="442"/>
      <point x="253" y="442" type="curve" smooth="yes"/>
      <point x="282" y="442"/>
      <point x="302" y="464"/>
      <point x="302" y="489" type="curve" smooth="yes"/>
      <point x="302" y="514"/>
      <point x="282" y="537"/>
      <point x="253" y="537" type="curve" smooth="yes"/>
      <point x="227" y="537"/>
      <point x="205" y="515"/>
    </contour>
    <contour>
      <point x="205" y="207" type="curve" smooth="yes"/>
      <point x="205" y="180"/>
      <point x="227" y="159"/>
      <point x="253" y="159" type="curve" smooth="yes"/>
      <point x="282" y="159"/>
      <point x="302" y="181"/>
      <point x="302" y="207" type="curve" smooth="yes"/>
      <point x="302" y="232"/>
      <point x="282" y="255"/>
      <point x="253" y="255" type="curve" smooth="yes"/>
      <point x="228" y="255"/>
      <point x="205" y="233"/>
    </contour>
    <contour>
      <point x="46" y="370" type="line"/>
      <point x="45" y="356"/>
      <point x="45" y="339"/>
      <point x="46" y="326" type="curve"/>
      <point x="463" y="326" type="line"/>
      <point x="464" y="339"/>
      <point x="464" y="356"/>
      <point x="463" y="370" type="curve"/>
    </contour>
  </outline>
</glyph>
<glyph name="OE" format="2">
  <advance width="943"/>
  <unicode hex="0152"/>
  <unicode hex="0153"/>
  <outline>
    <contour>
      <point x="376" y="-6" type="curve" smooth="yes"/>
      <point x="418" y="-6"/>
      <point x="468" y="1"/>
      <point x="575" y="1" type="curve" smooth="yes"/>
      <point x="616" y="1"/>
      <point x="776" y="0"/>
      <point x="856" y="0" type="curve"/>
      <point x="860" y="32"/>
      <point x="867" y="84"/>
      <point x="878" y="138" type="curve"/>
      <point x="870" y="139"/>
      <point x="866" y="139"/>
      <point x="859" y="138" type="curve"/>
      <point x="843" y="98"/>
      <point x="827" y="67"/>
      <point x="814" y="54" type="curve" smooth="yes"/>
      <point x="795" y="35"/>
      <point x="761" y="31"/>
      <point x="713" y="31" type="curve" smooth="yes"/>
      <point x="570" y="31" type="line"/>
      <point x="508" y="54" type="line"/>
      <point x="480" y="32"/>
      <point x="427" y="24"/>
      <point x="391" y="24" type="curve" smooth="yes"/>
      <point x="227" y="24"/>
      <point x="145" y="188"/>
      <point x="145" y="351" type="curve" smooth="yes"/>
      <point x="145" y="517"/>
      <point x="229" y="674"/>
      <point x="392" y="674" type="curve" smooth="yes"/>
      <point x="429" y="674"/>
      <point x="480" y="666"/>
      <point x="507" y="646" type="curve"/>
      <point x="568" y="669" type="line"/>
      <point x="718" y="669" type="line" smooth="yes"/>
      <point x="756" y="669"/>
      <point x="782" y="665"/>
      <point x="799" y="649" type="curve" smooth="yes"/>
      <point x="812" y="637"/>
      <point x="824" y="616"/>
      <point x="835" y="580" type="curve"/>
      <point x="842" y="579"/>
      <point x="847" y="579"/>
      <point x="855" y="580" type="curve"/>
      <point x="848" y="622"/>
      <point x="842" y="665"/>
      <point x="838" y="701" type="curve"/>
      <point x="832" y="701"/>
      <point x="682" y="699"/>
      <point x="597" y="699" type="curve" smooth="yes"/>
      <point x="476" y="699"/>
      <point x="433" y="703"/>
      <point x="398" y="703" type="curve" smooth="yes"/>
      <point x="189" y="703"/>
      <point x="55" y="556"/>
      <point x="55" y="344" type="curve" smooth="yes"/>
      <point x="55" y="132"/>
      <point x="190" y="-6"/>
    </contour>
    <contour>
      <point x="580" y="17" type="line"/>
      <point x="580" y="685" type="line"/>
      <point x="501" y="685" type="line"/>
      <point x="501" y="17" type="line"/>
    </contour>
    <contour>
      <point x="773" y="264" type="curve"/>
      <point x="782" y="263"/>
      <point x="787" y="263"/>
      <point x="794" y="264" type="curve"/>
      <point x="794" y="276"/>
      <point x="792" y="317"/>
      <point x="792" y="360" type="curve" smooth="yes"/>
      <point x="792" y="403"/>
      <point x="794" y="446"/>
      <point x="794" y="455" type="curve"/>
      <point x="787" y="456"/>
      <point x="781" y="456"/>
      <point x="773" y="455" type="curve"/>
      <point x="763" y="381"/>
      <point x="754" y="377"/>
      <point x="685" y="377" type="curve" smooth="yes"/>
      <point x="565" y="377" type="line"/>
      <point x="565" y="345" type="line"/>
      <point x="691" y="345" type="line" smooth="yes"/>
      <point x="754" y="345"/>
      <point x="764" y="343"/>
    </contour>
  </outline>
</glyph>
<glyph name="florin" format="2">
  <advance width="402"/>
  <unicode hex="0192"/>
  <outline>
    <contour>
      <point x="27" y="-211" type="curve" smooth="yes"/>
      <point x="70" y="-211"/>
      <point x="119" y="-188"/>
      <point x="151" y="-154" type="curve" smooth="yes"/>
      <point x="185" y="-118"/>
      <point x="197" y="-69"/>
      <point x="197" y="23" type="curve" smooth="yes"/>
      <point x="197" y="60"/>
      <point x="195" y="512"/>
      <point x="195" y="545" type="curve" smooth="yes"/>
      <point x="195" y="646"/>
      <point x="214" y="680"/>
      <point x="272" y="680" type="curve" smooth="yes"/>
      <point x="282" y="680"/>
      <point x="294" y="679"/>
      <point x="303" y="675" type="curve"/>
      <point x="295" y="683" type="line"/>
      <point x="290" y="650"/>
      <point x="315" y="612"/>
      <point x="356" y="612" type="curve" smooth="yes"/>
      <point x="382" y="612"/>
      <point x="397" y="628"/>
      <point x="397" y="650" type="curve" smooth="yes"/>
      <point x="397" y="693"/>
      <point x="340" y="711"/>
      <point x="290" y="711" type="curve" smooth="yes"/>
      <point x="250" y="711"/>
      <point x="205" y="699"/>
      <point x="173" y="672" type="curve" smooth="yes"/>
      <point x="123" y="630"/>
      <point x="121" y="561"/>
      <point x="121" y="536" type="curve" smooth="yes"/>
      <point x="121" y="470" type="line" smooth="yes"/>
      <point x="121" y="438"/>
      <point x="109" y="433"/>
      <point x="54" y="425" type="curve"/>
      <point x="53" y="418"/>
      <point x="53" y="415"/>
      <point x="54" y="407" type="curve"/>
      <point x="121" y="407" type="line"/>
      <point x="121" y="364"/>
      <point x="122" y="20"/>
      <point x="122" y="-35" type="curve" smooth="yes"/>
      <point x="122" y="-87"/>
      <point x="110" y="-169"/>
      <point x="69" y="-175" type="curve"/>
      <point x="81" y="-179" type="line"/>
      <point x="68" y="-142"/>
      <point x="41" y="-124"/>
      <point x="13" y="-124" type="curve" smooth="yes"/>
      <point x="-17" y="-124"/>
      <point x="-34" y="-145"/>
      <point x="-34" y="-166" type="curve" smooth="yes"/>
      <point x="-34" y="-187"/>
      <point x="-16" y="-211"/>
    </contour>
    <contour>
      <point x="296" y="407" type="line"/>
      <point x="298" y="420"/>
      <point x="298" y="427"/>
      <point x="296" y="439" type="curve"/>
      <point x="186" y="439" type="line"/>
      <point x="186" y="407" type="line"/>
    </contour>
  </outline>
</glyph>
<glyph name="gravecomb" format="2">
  <unicode hex="0300"/>
  <outline>
    <contour>
      <point x="-385" y="805" type="curve"/>
      <point x="-348" y="795"/>
      <point x="-240" y="759"/>
      <point x="-196" y="743" type="curve"/>
      <point x="-191" y="747"/>
      <point x="-188" y="753"/>
      <point x="-186" y="761" type="curve"/>
      <point x="-227" y="788"/>
      <point x="-312" y="844"/>
      <point x="-347" y="870" type="curve"/>
      <point x="-358" y="867"/>
      <point x="-378" y="834"/>
    </contour>
  </outline>
  <guideline angle="0" x="0" y="525"/>
  <guideline angle="0" x="0" y="735"/>
</glyph>
<glyph name="tildecomb" format="2">
  <unicode hex="0303"/>
  <outline>
    <contour>
      <point x="-158" y="855" type="curve"/>
      <point x="-170" y="825"/>
      <point x="-190" y="810"/>
      <point x="-207" y="810" type="curve" smooth="yes"/>
      <point x="-227" y="810"/>
      <point x="-250" y="822"/>
      <point x="-274" y="833" type="curve" smooth="yes"/>
      <point x="-295" y="843"/>
      <point x="-316" y="852"/>
      <point x="-332" y="852" type="curve" smooth="yes"/>
      <point x="-373" y="852"/>
      <point x="-403" y="816"/>
      <point x="-425" y="758" type="curve"/>
      <point x="-419" y="755"/>
      <point x="-413" y="752"/>
      <point x="-405" y="751" type="curve"/>
      <point x="-393" y="781"/>
      <point x="-374" y="794"/>
      <point x="-356" y="794" type="curve" smooth="yes"/>
      <point x="-333" y="794"/>
      <point x="-307" y="780"/>
      <point x="-283" y="769" type="curve" smooth="yes"/>
      <point x="-265" y="760"/>
      <point x="-246" y="753"/>
      <point x="-230" y="753" type="curve" smooth="yes"/>
      <point x="-190" y="753"/>
      <point x="-159" y="788"/>
      <point x="-138" y="848" type="curve"/>
      <point x="-145" y="851"/>
      <point x="-150" y="853"/>
    </contour>
  </outline>
</glyph>
<glyph name="brevecomb" format="2">
  <unicode hex="0306"/>
  <outline>
    <contour>
      <point x="-396" y="881" type="curve"/>
      <point x="-403" y="880"/>
      <point x="-409" y="879"/>
      <point x="-416" y="876" type="curve"/>
      <point x="-404" y="794"/>
      <point x="-356" y="748"/>
      <point x="-286" y="748" type="curve" smooth="yes"/>
      <point x="-217" y="748"/>
      <point x="-168" y="794"/>
      <point x="-157" y="876" type="curve"/>
      <point x="-164" y="879"/>
      <point x="-170" y="880"/>
      <point x="-177" y="881" type="curve"/>
      <point x="-194" y="830"/>
      <point x="-228" y="807"/>
      <point x="-287" y="807" type="curve" smooth="yes"/>
      <point x="-345" y="807"/>
      <point x="-379" y="830"/>
    </contour>
  </outline>
  <guideline angle="0" x="0" y="525"/>
  <guideline angle="0" x="0" y="735"/>
</glyph>
<glyph name="commaaccentturnedabovecomb" format="2">
  <unicode hex="0312"/>
  <outline>
    <contour>
      <point x="-246" y="891" type="curve"/>
      <point x="-246" y="899"/>
      <point x="-248" y="904"/>
      <point x="-251" y="910" type="curve"/>
      <point x="-310" y="897"/>
      <point x="-345" y="862"/>
      <point x="-345" y="812" type="curve" smooth="yes"/>
      <point x="-345" y="772"/>
      <point x="-322" y="744"/>
      <point x="-286" y="744" type="curve" smooth="yes"/>
      <point x="-260" y="744"/>
      <point x="-240" y="760"/>
      <point x="-240" y="786" type="curve" smooth="yes"/>
      <point x="-240" y="811"/>
      <point x="-258" y="824"/>
      <point x="-278" y="824" type="curve" smooth="yes"/>
      <point x="-290" y="824"/>
      <point x="-303" y="819"/>
      <point x="-314" y="807" type="curve"/>
      <point x="-302" y="803" type="line"/>
      <point x="-307" y="816"/>
      <point x="-309" y="820"/>
      <point x="-309" y="830" type="curve" smooth="yes"/>
      <point x="-309" y="855"/>
      <point x="-290" y="880"/>
    </contour>
  </outline>
</glyph>
<glyph name="caronslovakcomb" format="2">
  <advance width="108"/>
  <unicode hex="0315"/>
  <outline>
    <contour>
      <point x="55" y="697" type="line"/>
      <point x="-13" y="491" type="line"/>
      <point x="-20" y="490"/>
      <point x="-25" y="491"/>
      <point x="-30" y="492" type="curve"/>
      <point x="-20" y="701" type="line"/>
      <point x="-18" y="703"/>
      <point x="-5" y="705"/>
      <point x="11" y="705" type="curve" smooth="yes"/>
      <point x="23" y="705"/>
      <point x="40" y="704"/>
      <point x="55" y="701" type="curve"/>
    </contour>
  </outline>
</glyph>
<glyph name="commaaccentcomb" format="2">
  <unicode hex="0326"/>
  <outline>
    <contour>
      <point x="-326" y="-188" type="curve"/>
      <point x="-282" y="-177"/>
      <point x="-263" y="-152"/>
      <point x="-263" y="-127" type="curve" smooth="yes"/>
      <point x="-263" y="-117"/>
      <point x="-265" y="-113"/>
      <point x="-270" y="-100" type="curve"/>
      <point x="-258" y="-104" type="line"/>
      <point x="-269" y="-116"/>
      <point x="-282" y="-121"/>
      <point x="-294" y="-121" type="curve" smooth="yes"/>
      <point x="-314" y="-121"/>
      <point x="-332" y="-108"/>
      <point x="-332" y="-83" type="curve" smooth="yes"/>
      <point x="-332" y="-57"/>
      <point x="-312" y="-41"/>
      <point x="-286" y="-41" type="curve" smooth="yes"/>
      <point x="-250" y="-41"/>
      <point x="-227" y="-69"/>
      <point x="-227" y="-109" type="curve" smooth="yes"/>
      <point x="-227" y="-159"/>
      <point x="-262" y="-194"/>
      <point x="-321" y="-207" type="curve"/>
      <point x="-324" y="-201"/>
      <point x="-326" y="-196"/>
    </contour>
  </outline>
</glyph>
<glyph name="cedillacomb" format="2">
  <unicode hex="0327"/>
  <outline>
    <contour>
      <point x="-278" y="10" type="line"/>
      <point x="-348" y="-92" type="line"/>
      <point x="-346" y="-95" type="line"/>
      <point x="-297" y="-99"/>
      <point x="-266" y="-119"/>
      <point x="-266" y="-149" type="curve" smooth="yes"/>
      <point x="-266" y="-169"/>
      <point x="-280" y="-187"/>
      <point x="-318" y="-187" type="curve"/>
      <point x="-308" y="-193" type="line"/>
      <point x="-320" y="-157"/>
      <point x="-341" y="-145"/>
      <point x="-357" y="-145" type="curve" smooth="yes"/>
      <point x="-373" y="-145"/>
      <point x="-386" y="-157"/>
      <point x="-386" y="-174" type="curve" smooth="yes"/>
      <point x="-386" y="-191"/>
      <point x="-368" y="-212"/>
      <point x="-326" y="-212" type="curve" smooth="yes"/>
      <point x="-270" y="-212"/>
      <point x="-219" y="-180"/>
      <point x="-219" y="-125" type="curve" smooth="yes"/>
      <point x="-219" y="-93"/>
      <point x="-239" y="-65"/>
      <point x="-295" y="-54" type="curve"/>
      <point x="-293" y="-62" type="line"/>
      <point x="-246" y="10" type="line"/>
    </contour>
  </outline>
  <guideline angle="90" x="144" y="0"/>
</glyph>
<glyph name="ogonekcomb" format="2">
  <unicode hex="0328"/>
  <outline>
    <contour>
      <point x="-211" y="6" type="line"/>
      <point x="-292" y="-38"/>
      <point x="-339" y="-85"/>
      <point x="-339" y="-138" type="curve" smooth="yes"/>
      <point x="-339" y="-181"/>
      <point x="-308" y="-212"/>
      <point x="-255" y="-212" type="curve" smooth="yes"/>
      <point x="-225" y="-212"/>
      <point x="-197" y="-202"/>
      <point x="-172" y="-182" type="curve"/>
      <point x="-173" y="-177"/>
      <point x="-174" y="-174"/>
      <point x="-177" y="-169" type="curve"/>
      <point x="-186" y="-172"/>
      <point x="-200" y="-176"/>
      <point x="-213" y="-176" type="curve" smooth="yes"/>
      <point x="-241" y="-176"/>
      <point x="-268" y="-158"/>
      <point x="-268" y="-118" type="curve" smooth="yes"/>
      <point x="-268" y="-77"/>
      <point x="-240" y="-36"/>
      <point x="-185" y="6" type="curve"/>
    </contour>
  </outline>
  <guideline angle="90" x="-172" y="0"/>
</glyph>
<glyph name="macronbelowcomb" format="2">
  <unicode hex="0331"/>
  <outline>
    <contour>
      <point x="-411" y="-80" type="line"/>
      <point x="-413" y="-92"/>
      <point x="-413" y="-104"/>
      <point x="-411" y="-116" type="curve"/>
      <point x="-161" y="-116" type="line"/>
      <point x="-159" y="-104"/>
      <point x="-159" y="-92"/>
      <point x="-161" y="-80" type="curve"/>
    </contour>
  </outline>
</glyph>
<glyph name="macrondblbelowcomb" format="2">
  <unicode hex="035F"/>
  <outline>
    <contour>
      <point x="-412" y="-80" type="line"/>
      <point x="-413" y="-91"/>
      <point x="-413" y="-105"/>
      <point x="-412" y="-116" type="curve"/>
      <point x="412" y="-116" type="line"/>
      <point x="413" y="-105"/>
      <point x="413" y="-91"/>
      <point x="412" y="-80" type="curve"/>
    </contour>
  </outline>
</glyph>
<glyph name="endash" format="2">
  <advance width="500"/>
  <unicode hex="2013"/>
  <outline>
    <contour>
      <point x="484" y="336" type="line"/>
      <point x="485" y="352"/>
      <point x="485" y="365"/>
      <point x="484" y="379" type="curve"/>
      <point x="16" y="379" type="line"/>
      <point x="15" y="365"/>
      <point x="15" y="350"/>
      <point x="16" y="336" type="curve"/>
    </contour>
  </outline>
</glyph>
<glyph name="emdash" format="2">
  <advance width="1000"/>
  <unicode hex="2014"/>
  <outline>
    <contour>
      <point x="984" y="336" type="line"/>
      <point x="985" y="350"/>
      <point x="985" y="364"/>
      <point x="984" y="379" type="curve"/>
      <point x="16" y="379" type="line"/>
      <point x="15" y="365"/>
      <point x="15" y="350"/>
      <point x="16" y="336" type="curve"/>
    </contour>
  </outline>
</glyph>
<glyph name="quoteright" format="2">
  <advance width="167"/>
  <unicode hex="2019"/>
  <outline>
    <contour>
      <point x="51" y="497" type="line"/>
      <point x="111" y="526"/>
      <point x="144" y="579"/>
      <point x="144" y="631" type="curve" smooth="yes"/>
      <point x="144" y="674"/>
      <point x="122" y="711"/>
      <point x="81" y="711" type="curve" smooth="yes"/>
      <point x="50" y="711"/>
      <point x="28" y="690"/>
      <point x="28" y="663" type="curve" smooth="yes"/>
      <point x="28" y="636"/>
      <point x="49" y="619"/>
      <point x="72" y="619" type="curve" smooth="yes"/>
      <point x="82" y="619"/>
      <point x="95" y="622"/>
      <point x="104" y="633" type="curve"/>
      <point x="91" y="637" type="line"/>
      <point x="100" y="624"/>
      <point x="102" y="614"/>
      <point x="102" y="605" type="curve" smooth="yes"/>
      <point x="102" y="566"/>
      <point x="68" y="531"/>
      <point x="40" y="516" type="curve"/>
    </contour>
  </outline>
</glyph>
<glyph name="quotesinglbase" format="2">
  <advance width="172"/>
  <unicode hex="201A"/>
  <outline>
    <contour>
      <point x="51" y="-113" type="line"/>
      <point x="111" y="-84"/>
      <point x="144" y="-31"/>
      <point x="144" y="21" type="curve" smooth="yes"/>
      <point x="144" y="64"/>
      <point x="122" y="101"/>
      <point x="81" y="101" type="curve" smooth="yes"/>
      <point x="50" y="101"/>
      <point x="28" y="80"/>
      <point x="28" y="53" type="curve" smooth="yes"/>
      <point x="28" y="26"/>
      <point x="49" y="9"/>
      <point x="72" y="9" type="curve" smooth="yes"/>
      <point x="82" y="9"/>
      <point x="95" y="12"/>
      <point x="104" y="23" type="curve"/>
      <point x="91" y="27" type="line"/>
      <point x="100" y="14"/>
      <point x="102" y="4"/>
      <point x="102" y="-5" type="curve" smooth="yes"/>
      <point x="102" y="-44"/>
      <point x="68" y="-79"/>
      <point x="40" y="-94" type="curve"/>
    </contour>
  </outline>
</glyph>
<glyph name="quotereversed" format="2">
  <advance width="167"/>
  <unicode hex="201B"/>
  <outline>
    <contour>
      <point x="127" y="516" type="line"/>
      <point x="99" y="531"/>
      <point x="65" y="566"/>
      <point x="65" y="605" type="curve" smooth="yes"/>
      <point x="65" y="614"/>
      <point x="67" y="624"/>
      <point x="76" y="637" type="curve"/>
      <point x="63" y="633" type="line"/>
      <point x="72" y="622"/>
      <point x="85" y="619"/>
      <point x="95" y="619" type="curve" smooth="yes"/>
      <point x="118" y="619"/>
      <point x="139" y="636"/>
      <point x="139" y="663" type="curve" smooth="yes"/>
      <point x="139" y="690"/>
      <point x="117" y="711"/>
      <point x="86" y="711" type="curve" smooth="yes"/>
      <point x="45" y="711"/>
      <point x="23" y="674"/>
      <point x="23" y="631" type="curve" smooth="yes"/>
      <point x="23" y="579"/>
      <point x="56" y="526"/>
      <point x="116" y="497" type="curve"/>
    </contour>
  </outline>
</glyph>
<glyph name="dagger" format="2">
  <advance width="546"/>
  <unicode hex="2020"/>
  <outline>
    <contour>
      <point x="284" y="-180" type="line"/>
      <point x="284" y="98"/>
      <point x="313" y="261"/>
      <point x="313" y="286" type="curve" smooth="yes"/>
      <point x="313" y="297"/>
      <point x="286" y="351"/>
      <point x="286" y="434" type="curve" smooth="yes"/>
      <point x="286" y="542"/>
      <point x="313" y="654"/>
      <point x="313" y="671" type="curve" smooth="yes"/>
      <point x="313" y="697"/>
      <point x="294" y="711"/>
      <point x="273" y="711" type="curve" smooth="yes"/>
      <point x="252" y="711"/>
      <point x="233" y="697"/>
      <point x="233" y="671" type="curve" smooth="yes"/>
      <point x="233" y="654"/>
      <point x="261" y="542"/>
      <point x="261" y="434" type="curve" smooth="yes"/>
      <point x="261" y="351"/>
      <point x="232" y="297"/>
      <point x="232" y="286" type="curve" smooth="yes"/>
      <point x="232" y="261"/>
      <point x="262" y="98"/>
      <point x="262" y="-180" type="curve"/>
    </contour>
    <contour>
      <point x="89" y="394" type="curve" smooth="yes"/>
      <point x="105" y="394"/>
      <point x="178" y="424"/>
      <point x="273" y="424" type="curve" smooth="yes"/>
      <point x="365" y="424"/>
      <point x="439" y="394"/>
      <point x="457" y="394" type="curve" smooth="yes"/>
      <point x="480" y="394"/>
      <point x="496" y="412"/>
      <point x="496" y="432" type="curve" smooth="yes"/>
      <point x="496" y="452"/>
      <point x="480" y="469"/>
      <point x="457" y="469" type="curve" smooth="yes"/>
      <point x="435" y="469"/>
      <point x="374" y="443"/>
      <point x="273" y="443" type="curve" smooth="yes"/>
      <point x="176" y="443"/>
      <point x="105" y="469"/>
      <point x="89" y="469" type="curve" smooth="yes"/>
      <point x="65" y="469"/>
      <point x="50" y="452"/>
      <point x="50" y="432" type="curve" smooth="yes"/>
      <point x="50" y="412"/>
      <point x="65" y="394"/>
    </contour>
  </outline>
</glyph>
<glyph name="guilsinglright" format="2">
  <advance width="333"/>
  <unicode hex="203A"/>
  <outline>
    <contour>
      <point x="196" y="357" type="line"/>
      <point x="156" y="322"/>
      <point x="87" y="244"/>
      <point x="55" y="191" type="curve"/>
      <point x="59" y="185"/>
      <point x="64" y="181"/>
      <point x="71" y="177" type="curve"/>
      <point x="125" y="229"/>
      <point x="202" y="289"/>
      <point x="271" y="336" type="curve"/>
      <point x="272" y="343"/>
      <point x="273" y="351"/>
      <point x="273" y="358" type="curve"/>
      <point x="273" y="360"/>
      <point x="273" y="364"/>
      <point x="272" y="367" type="curve"/>
      <point x="206" y="411"/>
      <point x="131" y="472"/>
      <point x="75" y="525" type="curve"/>
      <point x="68" y="521"/>
      <point x="64" y="518"/>
      <point x="60" y="512" type="curve"/>
      <point x="91" y="460"/>
      <point x="156" y="382"/>
      <point x="196" y="346" type="curve"/>
    </contour>
  </outline>
  <guideline angle="0" x="0" y="344"/>
</glyph>
<glyph name="zerosuperior" format="2">
  <advance width="406"/>
  <unicode hex="2070"/>
  <outline>
    <contour>
      <point x="361" y="543" type="curve" smooth="yes"/>
      <point x="361" y="655"/>
      <point x="317" y="755"/>
      <point x="207" y="755" type="curve" smooth="yes"/>
      <point x="94" y="755"/>
      <point x="45" y="651"/>
      <point x="45" y="536" type="curve" smooth="yes"/>
      <point x="45" y="416"/>
      <point x="101" y="324"/>
      <point x="202" y="324" type="curve" smooth="yes"/>
      <point x="305" y="324"/>
      <point x="361" y="416"/>
    </contour>
    <contour>
      <point x="202" y="731" type="curve" smooth="yes"/>
      <point x="277" y="731"/>
      <point x="300" y="631"/>
      <point x="300" y="533" type="curve" smooth="yes"/>
      <point x="300" y="433"/>
      <point x="277" y="348"/>
      <point x="206" y="348" type="curve" smooth="yes"/>
      <point x="132" y="348"/>
      <point x="107" y="452"/>
      <point x="107" y="548" type="curve" smooth="yes"/>
      <point x="107" y="645"/>
      <point x="132" y="731"/>
    </contour>
  </outline>
</glyph>
<glyph name="sevensuperior" format="2">
  <advance width="329"/>
  <unicode hex="2077"/>
  <outline>
    <contour>
      <point x="88" y="326" type="line"/>
      <point x="98" y="325"/>
      <point x="107" y="325"/>
      <point x="117" y="325" type="curve" smooth="yes"/>
      <point x="128" y="325"/>
      <point x="141" y="325"/>
      <point x="151" y="326" type="curve"/>
      <point x="189" y="449"/>
      <point x="250" y="604"/>
      <point x="303" y="728" type="curve"/>
      <point x="303" y="736"/>
      <point x="302" y="739"/>
      <point x="301" y="746" type="curve"/>
      <point x="287" y="744"/>
      <point x="234" y="744"/>
      <point x="203" y="744" type="curve" smooth="yes"/>
      <point x="149" y="744"/>
      <point x="99" y="744"/>
      <point x="52" y="747" type="curve"/>
      <point x="48" y="712"/>
      <point x="42" y="671"/>
      <point x="33" y="631" type="curve"/>
      <point x="40" y="628"/>
      <point x="47" y="628"/>
      <point x="53" y="628" type="curve"/>
      <point x="73" y="683"/>
      <point x="80" y="688"/>
      <point x="112" y="689" type="curve" smooth="yes"/>
      <point x="128" y="690"/>
      <point x="148" y="690"/>
      <point x="158" y="690" type="curve" smooth="yes"/>
      <point x="209" y="690"/>
      <point x="262" y="689"/>
      <point x="263" y="689" type="curve"/>
      <point x="204" y="569"/>
      <point x="143" y="454"/>
      <point x="85" y="334" type="curve"/>
    </contour>
  </outline>
</glyph>
<glyph name="eightsuperior" format="2">
  <advance width="398"/>
  <unicode hex="2078"/>
  <outline>
    <contour>
      <point x="193" y="324" type="curve" smooth="yes"/>
      <point x="292" y="324"/>
      <point x="353" y="380"/>
      <point x="353" y="444" type="curve" smooth="yes"/>
      <point x="353" y="511"/>
      <point x="287" y="543"/>
      <point x="220" y="576" type="curve" smooth="yes"/>
      <point x="149" y="611"/>
      <point x="118" y="629"/>
      <point x="118" y="667" type="curve" smooth="yes"/>
      <point x="118" y="703"/>
      <point x="147" y="733"/>
      <point x="200" y="733" type="curve" smooth="yes"/>
      <point x="257" y="733"/>
      <point x="281" y="698"/>
      <point x="281" y="656" type="curve" smooth="yes"/>
      <point x="281" y="614"/>
      <point x="258" y="584"/>
      <point x="222" y="570" type="curve"/>
      <point x="249" y="557" type="line"/>
      <point x="249" y="563" type="line"/>
      <point x="297" y="580"/>
      <point x="341" y="613"/>
      <point x="341" y="660" type="curve" smooth="yes"/>
      <point x="341" y="710"/>
      <point x="292" y="755"/>
      <point x="205" y="755" type="curve" smooth="yes"/>
      <point x="114" y="755"/>
      <point x="59" y="705"/>
      <point x="59" y="646" type="curve" smooth="yes"/>
      <point x="59" y="582"/>
      <point x="122" y="551"/>
      <point x="185" y="522" type="curve" smooth="yes"/>
      <point x="242" y="496"/>
      <point x="291" y="473"/>
      <point x="291" y="422" type="curve" smooth="yes"/>
      <point x="291" y="383"/>
      <point x="262" y="346"/>
      <point x="201" y="346" type="curve" smooth="yes"/>
      <point x="137" y="346"/>
      <point x="108" y="387"/>
      <point x="108" y="438" type="curve" smooth="yes"/>
      <point x="108" y="483"/>
      <point x="130" y="514"/>
      <point x="170" y="535" type="curve"/>
      <point x="140" y="550" type="line"/>
      <point x="140" y="542" type="line"/>
      <point x="87" y="520"/>
      <point x="45" y="484"/>
      <point x="45" y="433" type="curve" smooth="yes"/>
      <point x="45" y="375"/>
      <point x="99" y="324"/>
    </contour>
  </outline>
</glyph>
<glyph name="Euro" format="2">
  <advance width="616"/>
  <unicode hex="20AC"/>
  <outline>
    <contour>
      <point x="377" y="-12" type="curve" smooth="yes"/>
      <point x="451" y="-12"/>
      <point x="517" y="16"/>
      <point x="571" y="61" type="curve"/>
      <point x="570" y="66"/>
      <point x="566" y="72"/>
      <point x="563" y="77" type="curve"/>
      <point x="510" y="48"/>
      <point x="465" y="34"/>
      <point x="418" y="34" type="curve" smooth="yes"/>
      <point x="267" y="34"/>
      <point x="203" y="181"/>
      <point x="203" y="364" type="curve" smooth="yes"/>
      <point x="203" y="540"/>
      <point x="262" y="682"/>
      <point x="402" y="682" type="curve" smooth="yes"/>
      <point x="422" y="682"/>
      <point x="452" y="679"/>
      <point x="474" y="664" type="curve"/>
      <point x="462" y="675" type="line"/>
      <point x="463" y="621"/>
      <point x="490" y="593"/>
      <point x="526" y="593" type="curve" smooth="yes"/>
      <point x="554" y="593"/>
      <point x="569" y="611"/>
      <point x="569" y="633" type="curve" smooth="yes"/>
      <point x="569" y="678"/>
      <point x="503" y="711"/>
      <point x="412" y="711" type="curve" smooth="yes"/>
      <point x="208" y="711"/>
      <point x="114" y="547"/>
      <point x="114" y="341" type="curve" smooth="yes"/>
      <point x="114" y="133"/>
      <point x="210" y="-12"/>
    </contour>
    <contour>
      <point x="444" y="269" type="line"/>
      <point x="451" y="302" type="line"/>
      <point x="39" y="302" type="line"/>
      <point x="30" y="269" type="line"/>
    </contour>
    <contour>
      <point x="466" y="374" type="line"/>
      <point x="473" y="407" type="line"/>
      <point x="40" y="407" type="line"/>
      <point x="30" y="374" type="line"/>
    </contour>
  </outline>
  <guideline angle="76.4393" x="256" y="0"/>
  <guideline angle="78.2171" x="373" y="0"/>
</glyph>
<glyph name="trademark" format="2">
  <advance width="764"/>
  <unicode hex="2122"/>
  <outline>
    <contour>
      <point x="631" y="698" type="line"/>
      <point x="605" y="698" type="line"/>
      <point x="522" y="492" type="line"/>
      <point x="442" y="698" type="line"/>
      <point x="399" y="698" type="line"/>
      <point x="390" y="684" type="line"/>
      <point x="494" y="417" type="line"/>
      <point x="501" y="417"/>
      <point x="514" y="418"/>
      <point x="521" y="419" type="curve"/>
    </contour>
    <contour>
      <point x="93" y="421" type="curve"/>
      <point x="114" y="421"/>
      <point x="140" y="422"/>
      <point x="170" y="422" type="curve" smooth="yes"/>
      <point x="194" y="422"/>
      <point x="230" y="421"/>
      <point x="249" y="421" type="curve"/>
      <point x="250" y="427"/>
      <point x="250" y="432"/>
      <point x="249" y="437" type="curve"/>
      <point x="201" y="441"/>
      <point x="197" y="442"/>
      <point x="197" y="481" type="curve" smooth="yes"/>
      <point x="197" y="685" type="line"/>
      <point x="144" y="685" type="line"/>
      <point x="144" y="475" type="line" smooth="yes"/>
      <point x="144" y="441"/>
      <point x="138" y="441"/>
      <point x="93" y="437" type="curve"/>
      <point x="92" y="431"/>
      <point x="92" y="426"/>
    </contour>
    <contour>
      <point x="30" y="613" type="curve"/>
      <point x="36" y="612"/>
      <point x="40" y="612"/>
      <point x="45" y="613" type="curve"/>
      <point x="52" y="634"/>
      <point x="57" y="650"/>
      <point x="65" y="660" type="curve" smooth="yes"/>
      <point x="74" y="671"/>
      <point x="87" y="674"/>
      <point x="107" y="674" type="curve" smooth="yes"/>
      <point x="233" y="674" type="line" smooth="yes"/>
      <point x="253" y="674"/>
      <point x="267" y="671"/>
      <point x="277" y="660" type="curve"/>
      <point x="286" y="649"/>
      <point x="290" y="634"/>
      <point x="297" y="613" type="curve"/>
      <point x="303" y="612"/>
      <point x="307" y="612"/>
      <point x="312" y="613" type="curve"/>
      <point x="308" y="643"/>
      <point x="306" y="673"/>
      <point x="304" y="700" type="curve"/>
      <point x="284" y="698"/>
      <point x="261" y="697"/>
      <point x="171" y="697" type="curve" smooth="yes"/>
      <point x="84" y="697"/>
      <point x="61" y="698"/>
      <point x="40" y="699" type="curve"/>
      <point x="38" y="673"/>
      <point x="34" y="643"/>
    </contour>
    <contour>
      <point x="399" y="698" type="line"/>
      <point x="377" y="698"/>
      <point x="346" y="699"/>
      <point x="325" y="699" type="curve"/>
      <point x="324" y="694"/>
      <point x="324" y="689"/>
      <point x="325" y="683" type="curve"/>
      <point x="369" y="678"/>
      <point x="375" y="677"/>
      <point x="373" y="644" type="curve" smooth="yes"/>
      <point x="366" y="481" type="line" smooth="yes"/>
      <point x="364" y="443"/>
      <point x="360" y="443"/>
      <point x="317" y="437" type="curve"/>
      <point x="316" y="431"/>
      <point x="316" y="426"/>
      <point x="317" y="421" type="curve"/>
      <point x="338" y="421"/>
      <point x="363" y="422"/>
      <point x="378" y="422" type="curve" smooth="yes"/>
      <point x="394" y="422"/>
      <point x="419" y="421"/>
      <point x="439" y="421" type="curve"/>
      <point x="440" y="426"/>
      <point x="440" y="431"/>
      <point x="439" y="437" type="curve"/>
      <point x="393" y="443"/>
      <point x="391" y="444"/>
      <point x="392" y="475" type="curve" smooth="yes"/>
      <point x="399" y="684" type="line"/>
    </contour>
    <contour>
      <point x="621" y="687" type="line"/>
      <point x="624" y="475" type="line" smooth="yes"/>
      <point x="625" y="442"/>
      <point x="621" y="442"/>
      <point x="578" y="437" type="curve"/>
      <point x="577" y="431"/>
      <point x="577" y="426"/>
      <point x="578" y="421" type="curve"/>
      <point x="598" y="421"/>
      <point x="624" y="422"/>
      <point x="652" y="422" type="curve" smooth="yes"/>
      <point x="676" y="422"/>
      <point x="712" y="421"/>
      <point x="726" y="421" type="curve"/>
      <point x="727" y="427"/>
      <point x="727" y="432"/>
      <point x="726" y="437" type="curve"/>
      <point x="681" y="441"/>
      <point x="678" y="442"/>
      <point x="677" y="481" type="curve" smooth="yes"/>
      <point x="673" y="644" type="line" smooth="yes"/>
      <point x="672" y="677"/>
      <point x="677" y="679"/>
      <point x="723" y="683" type="curve"/>
      <point x="724" y="688"/>
      <point x="724" y="693"/>
      <point x="723" y="699" type="curve"/>
      <point x="690" y="699"/>
      <point x="639" y="698"/>
      <point x="631" y="698" type="curve"/>
    </contour>
  </outline>
  <guideline angle="0" x="0" y="338"/>
</glyph>
<glyph name="G_macronbelowcomb_H_macronbelowcomb" format="2">
  <advance width="1684"/>
  <outline>
    <component base="G" xOffset="-5"/>
    <component base="H" xOffset="795"/>
    <contour>
      <point x="173" y="-90" type="line"/>
      <point x="172" y="-102"/>
      <point x="172" y="-115"/>
      <point x="173" y="-126" type="curve"/>
      <point x="1424" y="-126" type="line"/>
      <point x="1425" y="-115"/>
      <point x="1425" y="-102"/>
      <point x="1424" y="-90" type="curve"/>
    </contour>
  </outline>
  <guideline angle="90" x="1424" y="0"/>
</glyph>
<glyph name="eight.numr" format="2">
  <advance width="336"/>
  <outline>
    <contour>
      <point x="162" y="329" type="curve" smooth="yes"/>
      <point x="258" y="329"/>
      <point x="315" y="377"/>
      <point x="315" y="432" type="curve" smooth="yes"/>
      <point x="315" y="490"/>
      <point x="253" y="517"/>
      <point x="189" y="545" type="curve" smooth="yes"/>
      <point x="120" y="575"/>
      <point x="92" y="590"/>
      <point x="92" y="622" type="curve" smooth="yes"/>
      <point x="92" y="653"/>
      <point x="118" y="678"/>
      <point x="169" y="678" type="curve" smooth="yes"/>
      <point x="224" y="678"/>
      <point x="245" y="648"/>
      <point x="245" y="612" type="curve" smooth="yes"/>
      <point x="245" y="578"/>
      <point x="225" y="551"/>
      <point x="190" y="539" type="curve"/>
      <point x="219" y="527" type="line"/>
      <point x="219" y="533" type="line"/>
      <point x="264" y="548"/>
      <point x="303" y="578"/>
      <point x="303" y="617" type="curve" smooth="yes"/>
      <point x="303" y="660"/>
      <point x="258" y="699"/>
      <point x="174" y="699" type="curve" smooth="yes"/>
      <point x="86" y="699"/>
      <point x="35" y="655"/>
      <point x="35" y="602" type="curve" smooth="yes"/>
      <point x="35" y="547"/>
      <point x="94" y="517"/>
      <point x="155" y="492" type="curve" smooth="yes"/>
      <point x="210" y="469"/>
      <point x="255" y="451"/>
      <point x="255" y="412" type="curve" smooth="yes"/>
      <point x="255" y="380"/>
      <point x="229" y="350"/>
      <point x="170" y="350" type="curve" smooth="yes"/>
      <point x="108" y="350"/>
      <point x="82" y="384"/>
      <point x="82" y="426" type="curve" smooth="yes"/>
      <point x="82" y="463"/>
      <point x="102" y="488"/>
      <point x="140" y="505" type="curve"/>
      <point x="109" y="519" type="line"/>
      <point x="109" y="511" type="line"/>
      <point x="59" y="493"/>
      <point x="21" y="463"/>
      <point x="21" y="421" type="curve" smooth="yes"/>
      <point x="21" y="373"/>
      <point x="72" y="329"/>
    </contour>
  </outline>
</glyph>
<glyph name="nine.numr" format="2">
  <advance width="343"/>
  <outline>
    <contour>
      <point x="166" y="699" type="curve" smooth="yes"/>
      <point x="95" y="699"/>
      <point x="26" y="659"/>
      <point x="26" y="578" type="curve" smooth="yes"/>
      <point x="26" y="502"/>
      <point x="88" y="471"/>
      <point x="152" y="471" type="curve" smooth="yes"/>
      <point x="184" y="471"/>
      <point x="220" y="479"/>
      <point x="247" y="498" type="curve"/>
      <point x="253" y="526" type="line"/>
      <point x="229" y="508"/>
      <point x="203" y="500"/>
      <point x="179" y="500" type="curve" smooth="yes"/>
      <point x="134" y="500"/>
      <point x="90" y="527"/>
      <point x="90" y="593" type="curve" smooth="yes"/>
      <point x="90" y="653"/>
      <point x="126" y="676"/>
      <point x="161" y="676" type="curve" smooth="yes"/>
      <point x="203" y="676"/>
      <point x="250" y="644"/>
      <point x="250" y="543" type="curve" smooth="yes"/>
      <point x="250" y="439"/>
      <point x="200" y="349"/>
      <point x="76" y="349" type="curve" smooth="yes"/>
      <point x="66" y="349"/>
      <point x="59" y="349"/>
      <point x="51" y="350" type="curve"/>
      <point x="49" y="343"/>
      <point x="49" y="336"/>
      <point x="50" y="330" type="curve"/>
      <point x="59" y="329"/>
      <point x="68" y="329"/>
      <point x="73" y="329" type="curve" smooth="yes"/>
      <point x="244" y="329"/>
      <point x="312" y="444"/>
      <point x="312" y="549" type="curve" smooth="yes"/>
      <point x="312" y="662"/>
      <point x="234" y="699"/>
    </contour>
  </outline>
  <guideline angle="0" x="0" y="87"/>
</glyph>
<glyph name="seven.numr" format="2">
  <advance width="279"/>
  <outline>
    <contour>
      <point x="70" y="331" type="line"/>
      <point x="80" y="330"/>
      <point x="88" y="330"/>
      <point x="98" y="330" type="curve" smooth="yes"/>
      <point x="109" y="330"/>
      <point x="121" y="330"/>
      <point x="131" y="331" type="curve"/>
      <point x="167" y="437"/>
      <point x="221" y="572"/>
      <point x="270" y="679" type="curve"/>
      <point x="270" y="686"/>
      <point x="269" y="689"/>
      <point x="268" y="696" type="curve"/>
      <point x="254" y="694"/>
      <point x="203" y="694"/>
      <point x="173" y="694" type="curve" smooth="yes"/>
      <point x="121" y="694"/>
      <point x="73" y="694"/>
      <point x="27" y="697" type="curve"/>
      <point x="23" y="663"/>
      <point x="18" y="624"/>
      <point x="9" y="585" type="curve"/>
      <point x="16" y="582"/>
      <point x="22" y="582"/>
      <point x="28" y="582" type="curve"/>
      <point x="48" y="635"/>
      <point x="54" y="640"/>
      <point x="85" y="641" type="curve" smooth="yes"/>
      <point x="101" y="642"/>
      <point x="120" y="642"/>
      <point x="130" y="642" type="curve" smooth="yes"/>
      <point x="179" y="642"/>
      <point x="230" y="641"/>
      <point x="231" y="641" type="curve"/>
      <point x="176" y="539"/>
      <point x="121" y="441"/>
      <point x="67" y="339" type="curve"/>
    </contour>
  </outline>
</glyph>
<glyph name="two.numr" format="2">
  <advance width="309"/>
  <outline>
    <contour>
      <point x="260" y="336" type="curve"/>
      <point x="264" y="367"/>
      <point x="274" y="406"/>
      <point x="283" y="439" type="curve"/>
      <point x="277" y="442"/>
      <point x="270" y="443"/>
      <point x="265" y="443" type="curve"/>
      <point x="245" y="392"/>
      <point x="237" y="386"/>
      <point x="212" y="386" type="curve" smooth="yes"/>
      <point x="203" y="386"/>
      <point x="153" y="385"/>
      <point x="84" y="385" type="curve"/>
      <point x="197" y="477"/>
      <point x="262" y="542"/>
      <point x="262" y="609" type="curve" smooth="yes"/>
      <point x="262" y="667"/>
      <point x="215" y="699"/>
      <point x="149" y="699" type="curve" smooth="yes"/>
      <point x="98" y="699"/>
      <point x="56" y="679"/>
      <point x="22" y="641" type="curve"/>
      <point x="25" y="636"/>
      <point x="28" y="633"/>
      <point x="32" y="629" type="curve"/>
      <point x="59" y="651"/>
      <point x="91" y="660"/>
      <point x="122" y="660" type="curve" smooth="yes"/>
      <point x="170" y="660"/>
      <point x="201" y="636"/>
      <point x="201" y="589" type="curve" smooth="yes"/>
      <point x="201" y="533"/>
      <point x="154" y="460"/>
      <point x="9" y="353" type="curve"/>
      <point x="9" y="347"/>
      <point x="10" y="342"/>
      <point x="13" y="336" type="curve"/>
      <point x="30" y="337"/>
      <point x="66" y="337"/>
      <point x="112" y="337" type="curve" smooth="yes"/>
      <point x="159" y="337"/>
      <point x="210" y="337"/>
    </contour>
  </outline>
</glyph>
